<?xml version="1.0" encoding="UTF-8" standalone="no"?>
<!-- Created with Inkscape (http://www.inkscape.org/) -->

<svg
   xmlns:osb="http://www.openswatchbook.org/uri/2009/osb"
   xmlns:dc="http://purl.org/dc/elements/1.1/"
   xmlns:cc="http://creativecommons.org/ns#"
   xmlns:rdf="http://www.w3.org/1999/02/22-rdf-syntax-ns#"
   xmlns:svg="http://www.w3.org/2000/svg"
   xmlns="http://www.w3.org/2000/svg"
   xmlns:xlink="http://www.w3.org/1999/xlink"
   xmlns:sodipodi="http://sodipodi.sourceforge.net/DTD/sodipodi-0.dtd"
   xmlns:inkscape="http://www.inkscape.org/namespaces/inkscape"
   width="210mm"
   height="297mm"
   viewBox="0 0 744.09448819 1052.3622047"
   id="svg2"
   version="1.1"
   inkscape:version="0.91 r13725"
   sodipodi:docname="ciclos.svg">
  <sodipodi:namedview
     id="base"
     pagecolor="#ffffff"
     bordercolor="#666666"
     borderopacity="1.0"
     inkscape:pageopacity="0.0"
     inkscape:pageshadow="2"
     inkscape:zoom="1.979899"
     inkscape:cx="335.05311"
     inkscape:cy="554.69182"
     inkscape:document-units="px"
     inkscape:current-layer="layer1"
     showgrid="true"
     inkscape:window-width="1366"
     inkscape:window-height="741"
     inkscape:window-x="0"
     inkscape:window-y="25"
     inkscape:window-maximized="0">
    <inkscape:grid
       id="grid4136"
       type="xygrid" />
  </sodipodi:namedview>
  <defs
     id="defs4">
    <marker
       inkscape:isstock="true"
       style="overflow:visible;"
       id="marker4718"
       refX="0.0"
       refY="0.0"
       orient="auto"
       inkscape:stockid="Arrow1Mend">
      <path
         transform="scale(0.4) rotate(180) translate(10,0)"
         style="fill-rule:evenodd;stroke:#000000;stroke-width:1pt;stroke-opacity:1;fill:#000000;fill-opacity:1"
         d="M 0.0,0.0 L 5.0,-5.0 L -12.5,0.0 L 5.0,5.0 L 0.0,0.0 z "
         id="path4720" />
    </marker>
    <marker
       inkscape:stockid="Arrow1Mend"
       orient="auto"
       refY="0.0"
       refX="0.0"
       id="Arrow1Mend"
       style="overflow:visible;"
       inkscape:isstock="true"
       inkscape:collect="always">
      <path
         id="path4319"
         d="M 0.0,0.0 L 5.0,-5.0 L -12.5,0.0 L 5.0,5.0 L 0.0,0.0 z "
         style="fill-rule:evenodd;stroke:#000000;stroke-width:1pt;stroke-opacity:1;fill:#000000;fill-opacity:1"
         transform="scale(0.4) rotate(180) translate(10,0)" />
    </marker>
    <marker
       inkscape:stockid="Arrow1Lend"
       orient="auto"
       refY="0.0"
       refX="0.0"
       id="marker27946"
       style="overflow:visible;"
       inkscape:isstock="true">
      <path
         id="path27948"
         d="M 0.0,0.0 L 5.0,-5.0 L -12.5,0.0 L 5.0,5.0 L 0.0,0.0 z "
         style="fill-rule:evenodd;stroke:#000000;stroke-width:1pt;stroke-opacity:1;fill:#000000;fill-opacity:1"
         transform="scale(0.8) rotate(180) translate(12.5,0)" />
    </marker>
    <marker
       inkscape:stockid="Arrow1Lend"
       orient="auto"
       refY="0.0"
       refX="0.0"
       id="marker27910"
       style="overflow:visible;"
       inkscape:isstock="true">
      <path
         id="path27912"
         d="M 0.0,0.0 L 5.0,-5.0 L -12.5,0.0 L 5.0,5.0 L 0.0,0.0 z "
         style="fill-rule:evenodd;stroke:#000000;stroke-width:1pt;stroke-opacity:1;fill:#000000;fill-opacity:1"
         transform="scale(0.8) rotate(180) translate(12.5,0)" />
    </marker>
    <linearGradient
       osb:paint="solid"
       id="linearGradient25846">
      <stop
         id="stop25848"
         offset="0"
         style="stop-color:#000000;stop-opacity:0.39215687;" />
    </linearGradient>
    <linearGradient
       osb:paint="solid"
       id="linearGradient25756">
      <stop
         id="stop25758"
         offset="0"
         style="stop-color:#000000;stop-opacity:0.39215687;" />
    </linearGradient>
    <marker
       inkscape:isstock="true"
       style="overflow:visible"
       id="Arrow2Lstart"
       refX="0.0"
       refY="0.0"
       orient="auto"
       inkscape:stockid="Arrow2Lstart">
      <path
         transform="scale(1.1) translate(1,0)"
         d="M 8.7185878,4.0337352 L -2.2072895,0.016013256 L 8.7185884,-4.0017078 C 6.9730900,-1.6296469 6.9831476,1.6157441 8.7185878,4.0337352 z "
         style="fill-rule:evenodd;stroke-width:0.625;stroke-linejoin:round;stroke:#000000;stroke-opacity:1;fill:#777777;fill-opacity:1"
         id="path4186" />
    </marker>
    <marker
       inkscape:isstock="true"
       style="overflow:visible"
       id="TriangleInL"
       refX="0.0"
       refY="0.0"
       orient="auto"
       inkscape:stockid="TriangleInL">
      <path
         transform="scale(-0.8)"
         style="fill-rule:evenodd;stroke:#000000;stroke-width:1pt;stroke-opacity:1;fill:#777777;fill-opacity:1"
         d="M 5.77,0.0 L -2.88,5.0 L -2.88,-5.0 L 5.77,0.0 z "
         id="path4301" />
    </marker>
    <marker
       inkscape:isstock="true"
       style="overflow:visible"
       id="Arrow1Lstart"
       refX="0.0"
       refY="0.0"
       orient="auto"
       inkscape:stockid="Arrow1Lstart">
      <path
         transform="scale(0.8) translate(12.5,0)"
         style="fill-rule:evenodd;stroke:#000000;stroke-width:1pt;stroke-opacity:1;fill:#000000;fill-opacity:1"
         d="M 0.0,0.0 L 5.0,-5.0 L -12.5,0.0 L 5.0,5.0 L 0.0,0.0 z "
         id="path4168" />
    </marker>
    <marker
       inkscape:isstock="true"
       style="overflow:visible"
       id="Arrow1Lstart-3"
       refX="0"
       refY="0"
       orient="auto"
       inkscape:stockid="Arrow1Lstart">
      <path
         transform="matrix(0.8,0,0,0.8,10,0)"
         style="fill:#000000;fill-opacity:1;fill-rule:evenodd;stroke:#000000;stroke-width:1pt;stroke-opacity:1"
         d="M 0,0 5,-5 -12.5,0 5,5 0,0 Z"
         id="path4168-6"
         inkscape:connector-curvature="0" />
    </marker>
    <marker
       inkscape:isstock="true"
       style="overflow:visible"
       id="marker12502"
       refX="0"
       refY="0"
       orient="auto"
       inkscape:stockid="Arrow1Lstart">
      <path
         transform="matrix(0.8,0,0,0.8,10,0)"
         style="fill:#000000;fill-opacity:1;fill-rule:evenodd;stroke:#000000;stroke-width:1pt;stroke-opacity:1"
         d="M 0,0 5,-5 -12.5,0 5,5 0,0 Z"
         id="path12504"
         inkscape:connector-curvature="0" />
    </marker>
    <linearGradient
       gradientUnits="userSpaceOnUse"
       y2="522.92411"
       x2="535.88128"
       y1="522.92411"
       x1="402.35824"
       id="linearGradient25760"
       xlink:href="#linearGradient25756"
       inkscape:collect="always" />
    <linearGradient
       gradientUnits="userSpaceOnUse"
       y2="523.16448"
       x2="311.4117"
       y1="523.16448"
       x1="178.03537"
       id="linearGradient25850"
       xlink:href="#linearGradient25846"
       inkscape:collect="always" />
  </defs>
  <metadata
     id="metadata7">
    <rdf:RDF>
      <cc:Work
         rdf:about="">
        <dc:format>image/svg+xml</dc:format>
        <dc:type
           rdf:resource="http://purl.org/dc/dcmitype/StillImage" />
        <dc:title />
      </cc:Work>
    </rdf:RDF>
  </metadata>
  <g
     id="layer1"
     inkscape:groupmode="layer"
     inkscape:label="Capa 1">
    <path
       sodipodi:nodetypes="cc"
       inkscape:connector-curvature="0"
       id="path4138"
       d="m 134.64976,522.3622 209.69543,1.01015"
       style="fill:none;fill-rule:evenodd;stroke:#000000;stroke-width:1;stroke-linecap:butt;stroke-linejoin:miter;stroke-miterlimit:4;stroke-dasharray:1, 1;stroke-dashoffset:0;stroke-opacity:1" />
    <path
       sodipodi:nodetypes="cc"
       inkscape:connector-curvature="0"
       id="path4140"
       d="m 153.63451,432.76831 -1.51523,144.0355"
       style="fill:none;fill-rule:evenodd;stroke:#000000;stroke-width:1;stroke-linecap:butt;stroke-linejoin:miter;stroke-miterlimit:4;stroke-dasharray:1, 1;stroke-dashoffset:0;stroke-opacity:1" />
    <path
       sodipodi:nodetypes="cc"
       inkscape:connector-curvature="0"
       id="path4142"
       d="M 366.38036,522.86728 548.70269,522.3622"
       style="fill:none;fill-rule:evenodd;stroke:#000000;stroke-width:1;stroke-linecap:butt;stroke-linejoin:miter;stroke-miterlimit:4;stroke-dasharray:1, 1;stroke-dashoffset:0;stroke-opacity:1" />
    <path
       sodipodi:nodetypes="cc"
       inkscape:connector-curvature="0"
       id="path4144"
       d="m 379.40572,437.81906 0.50508,134.94413"
       style="fill:none;fill-rule:evenodd;stroke:#000000;stroke-width:1;stroke-linecap:butt;stroke-linejoin:miter;stroke-miterlimit:4;stroke-dasharray:1, 1;stroke-dashoffset:0;stroke-opacity:1" />
    <path
       sodipodi:open="true"
       d="m 305.26595,516.95423 a 61.270172,40.168949 0 0 1 -50.95504,45.88688 61.270172,40.168949 0 0 1 -70.07857,-33.32803 61.270172,40.168949 0 0 1 50.7161,-46.00052 61.270172,40.168949 0 0 1 70.25149,33.17119"
       sodipodi:end="6.1211014"
       sodipodi:start="6.1279208"
       sodipodi:ry="40.168949"
       sodipodi:rx="61.270172"
       sodipodi:cy="523.16602"
       sodipodi:cx="244.73282"
       sodipodi:type="arc"
       id="path4162"
       style="fill:url(#linearGradient25850);fill-opacity:1;stroke:#000000;stroke-width:0.921;stroke-linecap:butt;stroke-linejoin:miter;stroke-miterlimit:4;stroke-dasharray:none;stroke-dashoffset:0;stroke-opacity:1;marker-start:url(#Arrow1Mend);marker-mid:url(#Arrow1Mend)" />
    <path
       sodipodi:open="true"
       d="m 529.68148,516.32928 a 61.290092,42.658756 0 0 1 -50.97161,48.7311 61.290092,42.658756 0 0 1 -70.10135,-35.39382 61.290092,42.658756 0 0 1 50.73258,-48.85178 61.290092,42.658756 0 0 1 70.27433,35.22724"
       sodipodi:end="6.1211014"
       sodipodi:start="6.1279208"
       sodipodi:ry="42.658756"
       sodipodi:rx="61.290092"
       sodipodi:cy="522.92609"
       sodipodi:cx="469.12866"
       sodipodi:type="arc"
       id="path4162-7"
       style="fill:url(#linearGradient25760);fill-opacity:1;stroke:#000000;stroke-width:0.944;stroke-linecap:butt;stroke-linejoin:miter;stroke-miterlimit:4;stroke-dasharray:none;stroke-dashoffset:0;stroke-opacity:1;marker-start:url(#marker4718);marker-mid:url(#marker4718);fill-rule:nonzero" />
    <g
       transform="matrix(0.29819861,0,0,0.29819861,249.92604,427.26903)"
       id="g13575">
      <g
         style="font-style:normal;font-variant:normal;font-weight:normal;font-stretch:normal;letter-spacing:normal;word-spacing:normal;text-anchor:start;fill:none;fill-opacity:1;fill-rule:evenodd;stroke:#000000;stroke-linecap:butt;stroke-linejoin:miter;stroke-miterlimit:10.43299961;stroke-dasharray:none;stroke-dashoffset:0;stroke-opacity:1"
         word-spacing="normal"
         letter-spacing="normal"
         font-size-adjust="none"
         font-stretch="normal"
         font-weight="normal"
         font-variant="normal"
         font-style="normal"
         stroke-miterlimit="10.433"
         xml:space="preserve"
         transform="matrix(1.0629921,0,0,-1.0629921,-186.02362,789.27165)"
         id="content"><path
           style="fill:#000000;stroke-width:0"
           inkscape:connector-curvature="0"
           id="path13578"
           d="m 461.03,406 0.23,0.78 0.23,0.74 0.22,0.7 0.21,0.67 0.21,0.65 0.19,0.61 0.19,0.58 0.18,0.56 0.18,0.53 0.17,0.51 0.17,0.48 0.16,0.47 0.16,0.44 0.16,0.43 0.16,0.41 0.15,0.39 0.16,0.38 0.15,0.37 0.31,0.71 0.31,0.67 0.33,0.66 0.34,0.65 0.36,0.65 0.38,0.66 0.21,0.34 0.21,0.35 c 1.64,2.79 3.03,4.34 3.88,4.34 0.3,0 0.55,-0.2 0.8,-0.7 0.4,-0.85 0.79,-1.09 1.79,-1.09 1.45,0 2.29,0.89 2.29,2.44 0,1.54 -0.94,2.59 -2.34,2.59 -1.14,0 -2.49,-0.75 -3.79,-2.09 -2.03,-2.09 -4.03,-5.04 -4.83,-7.03 l -0.69,-1.79 2.64,10.81 -0.15,0.1 c -3.64,-0.65 -4.09,-0.75 -7.72,-1.35 l 0,-0.84 c 1.19,0.24 1.34,0.24 1.69,0.24 1.1,0 1.74,-0.49 1.74,-1.39 0,-0.7 0,-0.7 -0.79,-4.08 L 457.24,406 Z" /></g>    </g>
    <g
       transform="matrix(0.29967471,0,0,0.29967471,69.304809,331.78654)"
       id="g13624">
      <g
         style="font-style:normal;font-variant:normal;font-weight:normal;font-stretch:normal;letter-spacing:normal;word-spacing:normal;text-anchor:start;fill:none;fill-opacity:1;fill-rule:evenodd;stroke:#000000;stroke-linecap:butt;stroke-linejoin:miter;stroke-miterlimit:10.43299961;stroke-dasharray:none;stroke-dashoffset:0;stroke-opacity:1"
         id="g13626"
         transform="matrix(1.0629921,0,0,-1.0629921,-186.02362,789.27165)"
         xml:space="preserve"
         stroke-miterlimit="10.433"
         font-style="normal"
         font-variant="normal"
         font-weight="normal"
         font-stretch="normal"
         font-size-adjust="none"
         letter-spacing="normal"
         word-spacing="normal"><path
           style="fill:#000000;stroke-width:0"
           inkscape:connector-curvature="0"
           d="m 460.79,426.12 1.14,0 c 0,0 0.11,0 0.16,0.06 0.64,0.29 1.94,-0.65 1.94,-1.4 0,-0.45 -1.8,-7.52 -3.54,-14.1 -1.35,-4.98 -2.54,-9.71 -2.89,-11.16 -0.55,-2.29 -1.19,-2.88 -3.33,-2.93 l 0,-0.8 10.21,0 0,0.75 c -2.35,0 -3.19,0.44 -3.19,1.49 0,0.7 0.84,4.58 1.84,8.27 1.25,-0.65 2.14,-0.85 3.29,-0.85 l -0.2,0.95 c -1.4,0 -2.39,0.74 -2.39,1.84 0,1.69 1.79,8.22 3.24,11.91 1.34,3.39 4.23,5.83 6.72,5.67 l 0,0 c 2.14,-0.09 3.09,-1.39 3.09,-4.28 0,-3.29 -1.45,-7.57 -3.59,-10.66 -2.09,-2.94 -4.48,-4.48 -7.07,-4.48 l 0.2,-0.95 c 7.27,0 14.94,8.37 14.94,16.29 0,3.88 -2.19,6.23 -5.73,6.23 -3.24,0 -5.63,-1.59 -8.51,-5.63 l 1.44,4.98 0.15,0.45 c 0,0 -0.05,0.05 -0.1,0.15 l -0.1,0.05 c 0,0.05 -0.05,0.05 -0.05,0.05 l -0.1,-0.05 -7.67,-1.1 z"
           id="path13628" /><path
           style="fill:#000000;stroke-width:0"
           inkscape:connector-curvature="0"
           d="m 497.69,413.18 0,0.11 -0.01,0.09 -0.02,0.1 -0.02,0.1 -0.02,0.09 -0.03,0.09 -0.03,0.09 -0.03,0.08 -0.04,0.09 -0.04,0.08 -0.05,0.07 -0.05,0.08 -0.05,0.07 -0.06,0.07 -0.06,0.07 -0.06,0.06 -0.07,0.06 -0.07,0.05 -0.07,0.06 -0.08,0.05 -0.07,0.04 -0.08,0.05 -0.09,0.03 -0.09,0.04 -0.08,0.03 -0.1,0.03 -0.09,0.02 -0.1,0.02 -0.09,0.02 -0.11,0.01 -0.1,0 -0.1,0.01 c -0.95,0 -2.07,-0.55 -3.09,-1.53 -1.6,-1.56 -3.17,-3.67 -3.78,-5.13 l -0.55,-1.31 1.96,7.89 -0.4,0.08 -6.36,-0.99 0,-0.61 1.02,0 c 0.98,0 1.89,-0.08 1.89,-0.84 0.03,-0.51 0,-0.51 -0.58,-2.98 l -2.98,-10.62 3.19,0 c 1.93,6.11 2.59,7.56 4.29,10.25 1.39,2.22 2.59,3.42 3.32,3.42 0.25,0 0.47,-0.14 0.68,-0.51 0.37,-0.61 0.7,-0.8 1.5,-0.8 1.23,0 1.89,0.66 1.85,1.82 z"
           id="path13630" /></g>    </g>
    <g
       transform="matrix(0.24212936,0,0,0.24212936,473.67158,446.80332)"
       id="g13684">
      <g
         style="font-style:normal;font-variant:normal;font-weight:normal;font-stretch:normal;letter-spacing:normal;word-spacing:normal;text-anchor:start;fill:none;fill-opacity:1;fill-rule:evenodd;stroke:#000000;stroke-linecap:butt;stroke-linejoin:miter;stroke-miterlimit:10.43299961;stroke-dasharray:none;stroke-dashoffset:0;stroke-opacity:1"
         word-spacing="normal"
         letter-spacing="normal"
         font-size-adjust="none"
         font-stretch="normal"
         font-weight="normal"
         font-variant="normal"
         font-style="normal"
         stroke-miterlimit="10.433"
         xml:space="preserve"
         transform="matrix(1.0629921,0,0,-1.0629921,-186.02362,789.27165)"
         id="g13686"><path
           style="fill:#000000;stroke-width:0"
           inkscape:connector-curvature="0"
           id="path13688"
           d="m 478.57,430.06 0,0.05 0,0.06 -0.01,0.07 0,0.08 0,0.09 0,0.09 -0.01,0.21 -0.01,0.24 -0.02,0.27 -0.03,0.28 -0.03,0.31 -0.05,0.33 -0.05,0.34 -0.06,0.35 -0.08,0.36 -0.09,0.37 -0.1,0.38 -0.12,0.37 -0.14,0.38 -0.15,0.38 -0.17,0.36 -0.19,0.37 -0.21,0.35 -0.23,0.33 -0.26,0.32 -0.13,0.16 -0.15,0.15 -0.14,0.14 -0.16,0.14 -0.16,0.13 -0.17,0.13 -0.17,0.11 -0.18,0.12 -0.19,0.1 -0.2,0.1 -0.2,0.09 -0.21,0.08 -0.22,0.08 -0.22,0.06 -0.24,0.06 -0.24,0.04 -0.25,0.04 -0.25,0.03 -0.27,0.01 -0.27,0.01 -0.05,-1.05 c 1.99,0 2.79,-1.74 2.79,-4.58 l 0,0 c 0,-2.69 -0.7,-6.38 -1.69,-10.41 l -10.82,0 c 1.8,7.22 4.94,14.99 9.72,14.99 l 0.05,1.05 c -8.82,0 -15.09,-13.85 -15.09,-23.42 0,-1.79 0.29,-9.71 6.62,-9.71 l 0.7,1.1 c -2.74,0 -3.74,2.39 -3.74,5.73 0,2.44 0.55,5.43 1.25,8.47 l 10.81,0 c -1.55,-5.83 -3.29,-14.2 -8.32,-14.2 l -0.7,-1.1 c 9.91,0 14.5,16.94 14.5,24.61 z" /></g>    </g>
    <g
       transform="matrix(0.27435261,0,0,0.27435261,302.17477,346.42975)"
       id="g13748">
      <g
         style="font-style:normal;font-variant:normal;font-weight:normal;font-stretch:normal;letter-spacing:normal;word-spacing:normal;text-anchor:start;fill:none;fill-opacity:1;fill-rule:evenodd;stroke:#000000;stroke-linecap:butt;stroke-linejoin:miter;stroke-miterlimit:10.43299961;stroke-dasharray:none;stroke-dashoffset:0;stroke-opacity:1"
         id="g13750"
         transform="matrix(1.0629921,0,0,-1.0629921,-186.02362,789.27165)"
         xml:space="preserve"
         stroke-miterlimit="10.433"
         font-style="normal"
         font-variant="normal"
         font-weight="normal"
         font-stretch="normal"
         font-size-adjust="none"
         letter-spacing="normal"
         word-spacing="normal"><path
           style="fill:#000000;stroke-width:0"
           inkscape:connector-curvature="0"
           d="m 460.79,426.12 1.14,0 c 0,0 0.11,0 0.16,0.06 0.64,0.29 1.94,-0.65 1.94,-1.4 0,-0.45 -1.8,-7.52 -3.54,-14.1 -1.35,-4.98 -2.54,-9.71 -2.89,-11.16 -0.55,-2.29 -1.19,-2.88 -3.33,-2.93 l 0,-0.8 10.21,0 0,0.75 c -2.35,0 -3.19,0.44 -3.19,1.49 0,0.7 0.84,4.58 1.84,8.27 1.25,-0.65 2.14,-0.85 3.29,-0.85 l -0.2,0.95 c -1.4,0 -2.39,0.74 -2.39,1.84 0,1.69 1.79,8.22 3.24,11.91 1.34,3.39 4.23,5.83 6.72,5.67 l 0,0 c 2.14,-0.09 3.09,-1.39 3.09,-4.28 0,-3.29 -1.45,-7.57 -3.59,-10.66 -2.09,-2.94 -4.48,-4.48 -7.07,-4.48 l 0.2,-0.95 c 7.27,0 14.94,8.37 14.94,16.29 0,3.88 -2.19,6.23 -5.73,6.23 -3.24,0 -5.63,-1.59 -8.51,-5.63 l 1.44,4.98 0.15,0.45 c 0,0 -0.05,0.05 -0.1,0.15 l -0.1,0.05 c 0,0.05 -0.05,0.05 -0.05,0.05 l -0.1,-0.05 -7.67,-1.1 z"
           id="path13752" /><path
           style="fill:#000000;stroke-width:0"
           inkscape:connector-curvature="0"
           d="m 500.76,416.56 0,0.04 0,0.04 0,0.06 0,0.05 0,0.07 0,0.06 -0.01,0.16 -0.01,0.17 -0.02,0.2 -0.02,0.21 -0.03,0.22 -0.04,0.24 -0.04,0.25 -0.06,0.25 -0.06,0.27 -0.08,0.27 -0.09,0.27 -0.1,0.28 -0.11,0.27 -0.13,0.28 -0.14,0.27 -0.16,0.26 -0.18,0.26 -0.19,0.24 -0.22,0.24 -0.11,0.11 -0.12,0.11 -0.12,0.1 -0.13,0.1 -0.14,0.1 -0.14,0.09 -0.14,0.09 -0.16,0.08 -0.15,0.08 -0.17,0.07 -0.17,0.06 -0.17,0.06 -0.18,0.06 -0.19,0.04 -0.2,0.05 -0.2,0.03 -0.21,0.03 -0.21,0.02 -0.22,0.01 -0.23,0 -0.18,-0.76 c 1.6,0 2.22,-1.27 2.22,-3.35 l 0,0 c 0,-1.96 -0.62,-4.65 -1.53,-7.6 l -8.44,0 c 1.46,5.27 3.93,10.95 7.75,10.95 l 0.18,0.76 c -7.35,0 -12.58,-10.11 -12.58,-17.09 0,-1.31 0.21,-7.09 5.53,-7.09 l 0.68,0.8 c -2.14,0 -2.9,1.74 -2.9,4.18 0,1.78 0.43,3.97 0.98,6.18 l 8.44,0 c -1.2,-4.25 -2.59,-10.36 -6.52,-10.36 l -0.68,-0.8 c 8.29,0 12.1,12.36 12.1,17.96 z"
           id="path13754" /></g>    </g>
    <g
       transform="matrix(0.36819554,0,0,0.36819554,52.172523,385.7541)"
       id="g26372">
      <g
         style="font-style:normal;font-variant:normal;font-weight:normal;font-stretch:normal;letter-spacing:normal;word-spacing:normal;text-anchor:start;fill:none;fill-opacity:1;fill-rule:evenodd;stroke:#000000;stroke-linecap:butt;stroke-linejoin:miter;stroke-miterlimit:10.43299961;stroke-dasharray:none;stroke-dashoffset:0;stroke-opacity:1"
         word-spacing="normal"
         letter-spacing="normal"
         font-size-adjust="none"
         font-stretch="normal"
         font-weight="normal"
         font-variant="normal"
         font-style="normal"
         stroke-miterlimit="10.433"
         xml:space="preserve"
         transform="matrix(1.0629921,0,0,-1.0629921,-186.02362,789.27165)"
         id="g26374"><path
           style="fill:#000000;stroke-width:0"
           inkscape:connector-curvature="0"
           id="path26376"
           d="m 461.03,406 0.23,0.78 0.23,0.74 0.22,0.7 0.21,0.67 0.21,0.65 0.19,0.61 0.19,0.58 0.18,0.56 0.18,0.53 0.17,0.51 0.17,0.48 0.16,0.47 0.16,0.44 0.16,0.43 0.16,0.41 0.15,0.39 0.16,0.38 0.15,0.37 0.31,0.71 0.31,0.67 0.33,0.66 0.34,0.65 0.36,0.65 0.38,0.66 0.21,0.34 0.21,0.35 c 1.64,2.79 3.03,4.34 3.88,4.34 0.3,0 0.55,-0.2 0.8,-0.7 0.4,-0.85 0.79,-1.09 1.79,-1.09 1.45,0 2.29,0.89 2.29,2.44 0,1.54 -0.94,2.59 -2.34,2.59 -1.14,0 -2.49,-0.75 -3.79,-2.09 -2.03,-2.09 -4.03,-5.04 -4.83,-7.03 l -0.69,-1.79 2.64,10.81 -0.15,0.1 c -3.64,-0.65 -4.09,-0.75 -7.72,-1.35 l 0,-0.84 c 1.19,0.24 1.34,0.24 1.69,0.24 1.1,0 1.74,-0.49 1.74,-1.39 0,-0.7 0,-0.7 -0.79,-4.08 L 457.24,406 Z" /><path
           style="fill:#000000;stroke-width:0"
           inkscape:connector-curvature="0"
           id="path26378"
           d="m 490.33,399 0,0.55 c -2.88,0.03 -3.46,0.4 -3.46,2.14 l 0,21.82 -0.29,0.07 -6.54,-3.31 0,-0.51 c 0.43,0.19 0.83,0.33 0.98,0.4 0.65,0.26 1.27,0.4 1.64,0.4 0.76,0 1.09,-0.54 1.09,-1.7 l 0,-16.48 c 0,-1.2 -0.3,-2.04 -0.88,-2.36 -0.54,-0.33 -1.05,-0.44 -2.58,-0.47 l 0,-0.55 z" /></g>    </g>
    <g
       transform="matrix(0.36699995,0,0,0.36699995,200.01349,387.70588)"
       id="g26474">
      <g
         style="font-style:normal;font-variant:normal;font-weight:normal;font-stretch:normal;letter-spacing:normal;word-spacing:normal;text-anchor:start;fill:none;fill-opacity:1;fill-rule:evenodd;stroke:#000000;stroke-linecap:butt;stroke-linejoin:miter;stroke-miterlimit:10.43299961;stroke-dasharray:none;stroke-dashoffset:0;stroke-opacity:1"
         id="g26476"
         transform="matrix(1.0629921,0,0,-1.0629921,-186.02362,789.27165)"
         xml:space="preserve"
         stroke-miterlimit="10.433"
         font-style="normal"
         font-variant="normal"
         font-weight="normal"
         font-stretch="normal"
         font-size-adjust="none"
         letter-spacing="normal"
         word-spacing="normal"><path
           style="fill:#000000;stroke-width:0"
           inkscape:connector-curvature="0"
           d="m 461.03,406 0.23,0.78 0.23,0.74 0.22,0.7 0.21,0.67 0.21,0.65 0.19,0.61 0.19,0.58 0.18,0.56 0.18,0.53 0.17,0.51 0.17,0.48 0.16,0.47 0.16,0.44 0.16,0.43 0.16,0.41 0.15,0.39 0.16,0.38 0.15,0.37 0.31,0.71 0.31,0.67 0.33,0.66 0.34,0.65 0.36,0.65 0.38,0.66 0.21,0.34 0.21,0.35 c 1.64,2.79 3.03,4.34 3.88,4.34 0.3,0 0.55,-0.2 0.8,-0.7 0.4,-0.85 0.79,-1.09 1.79,-1.09 1.45,0 2.29,0.89 2.29,2.44 0,1.54 -0.94,2.59 -2.34,2.59 -1.14,0 -2.49,-0.75 -3.79,-2.09 -2.03,-2.09 -4.03,-5.04 -4.83,-7.03 l -0.69,-1.79 2.64,10.81 -0.15,0.1 c -3.64,-0.65 -4.09,-0.75 -7.72,-1.35 l 0,-0.84 c 1.19,0.24 1.34,0.24 1.69,0.24 1.1,0 1.74,-0.49 1.74,-1.39 0,-0.7 0,-0.7 -0.79,-4.08 L 457.24,406 Z"
           id="path26478" /><path
           style="fill:#000000;stroke-width:0"
           inkscape:connector-curvature="0"
           d="m 493.27,403.98 -0.47,0.18 c -1.35,-2.07 -1.82,-2.4 -3.46,-2.4 l -8.68,0 6.1,6.4 c 3.24,3.39 4.66,6.15 4.66,8.98 0,3.64 -2.95,6.44 -6.73,6.44 -2,0 -3.89,-0.8 -5.24,-2.25 -1.16,-1.24 -1.7,-2.4 -2.32,-4.99 l 0.76,-0.18 c 1.45,3.57 2.77,4.73 5.27,4.73 3.06,0 5.13,-2.07 5.13,-5.13 0,-2.83 -1.67,-6.21 -4.73,-9.45 l -6.47,-6.87 0,-0.44 14.18,0 z"
           id="path26480" /></g>    </g>
    <g
       transform="matrix(0.25980397,0,0,0.25980397,313.15175,424.82687)"
       id="g26584">
      <g
         style="font-style:normal;font-variant:normal;font-weight:normal;font-stretch:normal;letter-spacing:normal;word-spacing:normal;text-anchor:start;fill:none;fill-opacity:1;fill-rule:evenodd;stroke:#000000;stroke-linecap:butt;stroke-linejoin:miter;stroke-miterlimit:10.43299961;stroke-dasharray:none;stroke-dashoffset:0;stroke-opacity:1"
         word-spacing="normal"
         letter-spacing="normal"
         font-size-adjust="none"
         font-stretch="normal"
         font-weight="normal"
         font-variant="normal"
         font-style="normal"
         stroke-miterlimit="10.433"
         xml:space="preserve"
         transform="matrix(1.0629921,0,0,-1.0629921,-186.02362,789.27165)"
         id="g26586"><path
           style="fill:#000000;stroke-width:0"
           inkscape:connector-curvature="0"
           id="path26588"
           d="m 478.57,430.06 0,0.05 0,0.06 -0.01,0.07 0,0.08 0,0.09 0,0.09 -0.01,0.21 -0.01,0.24 -0.02,0.27 -0.03,0.28 -0.03,0.31 -0.05,0.33 -0.05,0.34 -0.06,0.35 -0.08,0.36 -0.09,0.37 -0.1,0.38 -0.12,0.37 -0.14,0.38 -0.15,0.38 -0.17,0.36 -0.19,0.37 -0.21,0.35 -0.23,0.33 -0.26,0.32 -0.13,0.16 -0.15,0.15 -0.14,0.14 -0.16,0.14 -0.16,0.13 -0.17,0.13 -0.17,0.11 -0.18,0.12 -0.19,0.1 -0.2,0.1 -0.2,0.09 -0.21,0.08 -0.22,0.08 -0.22,0.06 -0.24,0.06 -0.24,0.04 -0.25,0.04 -0.25,0.03 -0.27,0.01 -0.27,0.01 -0.05,-1.05 c 1.99,0 2.79,-1.74 2.79,-4.58 l 0,0 c 0,-2.69 -0.7,-6.38 -1.69,-10.41 l -10.82,0 c 1.8,7.22 4.94,14.99 9.72,14.99 l 0.05,1.05 c -8.82,0 -15.09,-13.85 -15.09,-23.42 0,-1.79 0.29,-9.71 6.62,-9.71 l 0.7,1.1 c -2.74,0 -3.74,2.39 -3.74,5.73 0,2.44 0.55,5.43 1.25,8.47 l 10.81,0 c -1.55,-5.83 -3.29,-14.2 -8.32,-14.2 l -0.7,-1.1 c 9.91,0 14.5,16.94 14.5,24.61 z" /><path
           style="fill:#000000;stroke-width:0"
           inkscape:connector-curvature="0"
           id="path26590"
           d="m 494.33,399 0,0.55 c -2.88,0.03 -3.46,0.4 -3.46,2.14 l 0,21.82 -0.29,0.07 -6.54,-3.31 0,-0.51 c 0.43,0.19 0.83,0.33 0.98,0.4 0.65,0.26 1.27,0.4 1.64,0.4 0.76,0 1.09,-0.54 1.09,-1.7 l 0,-16.48 c 0,-1.2 -0.3,-2.04 -0.88,-2.36 -0.54,-0.33 -1.05,-0.44 -2.58,-0.47 l 0,-0.55 z" /></g>    </g>
    <g
       transform="matrix(0.2482627,0,0,0.2482627,459.04843,429.04103)"
       id="g26702">
      <g
         style="font-style:normal;font-variant:normal;font-weight:normal;font-stretch:normal;letter-spacing:normal;word-spacing:normal;text-anchor:start;fill:none;fill-opacity:1;fill-rule:evenodd;stroke:#000000;stroke-linecap:butt;stroke-linejoin:miter;stroke-miterlimit:10.43299961;stroke-dasharray:none;stroke-dashoffset:0;stroke-opacity:1"
         id="g26704"
         transform="matrix(1.0629921,0,0,-1.0629921,-186.02362,789.27165)"
         xml:space="preserve"
         stroke-miterlimit="10.433"
         font-style="normal"
         font-variant="normal"
         font-weight="normal"
         font-stretch="normal"
         font-size-adjust="none"
         letter-spacing="normal"
         word-spacing="normal"><path
           style="fill:#000000;stroke-width:0"
           inkscape:connector-curvature="0"
           d="m 478.57,430.06 0,0.05 0,0.06 -0.01,0.07 0,0.08 0,0.09 0,0.09 -0.01,0.21 -0.01,0.24 -0.02,0.27 -0.03,0.28 -0.03,0.31 -0.05,0.33 -0.05,0.34 -0.06,0.35 -0.08,0.36 -0.09,0.37 -0.1,0.38 -0.12,0.37 -0.14,0.38 -0.15,0.38 -0.17,0.36 -0.19,0.37 -0.21,0.35 -0.23,0.33 -0.26,0.32 -0.13,0.16 -0.15,0.15 -0.14,0.14 -0.16,0.14 -0.16,0.13 -0.17,0.13 -0.17,0.11 -0.18,0.12 -0.19,0.1 -0.2,0.1 -0.2,0.09 -0.21,0.08 -0.22,0.08 -0.22,0.06 -0.24,0.06 -0.24,0.04 -0.25,0.04 -0.25,0.03 -0.27,0.01 -0.27,0.01 -0.05,-1.05 c 1.99,0 2.79,-1.74 2.79,-4.58 l 0,0 c 0,-2.69 -0.7,-6.38 -1.69,-10.41 l -10.82,0 c 1.8,7.22 4.94,14.99 9.72,14.99 l 0.05,1.05 c -8.82,0 -15.09,-13.85 -15.09,-23.42 0,-1.79 0.29,-9.71 6.62,-9.71 l 0.7,1.1 c -2.74,0 -3.74,2.39 -3.74,5.73 0,2.44 0.55,5.43 1.25,8.47 l 10.81,0 c -1.55,-5.83 -3.29,-14.2 -8.32,-14.2 l -0.7,-1.1 c 9.91,0 14.5,16.94 14.5,24.61 z"
           id="path26706" /><path
           style="fill:#000000;stroke-width:0"
           inkscape:connector-curvature="0"
           d="m 497.27,403.98 -0.47,0.18 c -1.35,-2.07 -1.82,-2.4 -3.46,-2.4 l -8.68,0 6.1,6.4 c 3.24,3.39 4.66,6.15 4.66,8.98 0,3.64 -2.95,6.44 -6.73,6.44 -2,0 -3.89,-0.8 -5.24,-2.25 -1.16,-1.24 -1.7,-2.4 -2.32,-4.99 l 0.76,-0.18 c 1.45,3.57 2.77,4.73 5.27,4.73 3.06,0 5.13,-2.07 5.13,-5.13 0,-2.83 -1.67,-6.21 -4.73,-9.45 l -6.47,-6.87 0,-0.44 14.18,0 z"
           id="path26708" /></g>    </g>
    <g
       transform="matrix(0.37137486,0,0,0.37137486,315.33901,380.81988)"
       id="g26840">
      <g
         style="font-style:normal;font-variant:normal;font-weight:normal;font-stretch:normal;letter-spacing:normal;word-spacing:normal;text-anchor:start;fill:none;fill-opacity:1;fill-rule:evenodd;stroke:#000000;stroke-linecap:butt;stroke-linejoin:miter;stroke-miterlimit:10.43299961;stroke-dasharray:none;stroke-dashoffset:0;stroke-opacity:1"
         word-spacing="normal"
         letter-spacing="normal"
         font-size-adjust="none"
         font-stretch="normal"
         font-weight="normal"
         font-variant="normal"
         font-style="normal"
         stroke-miterlimit="10.433"
         xml:space="preserve"
         transform="matrix(1.0629921,0,0,-1.0629921,-186.02362,789.27165)"
         id="g26842"><path
           style="fill:#000000;stroke-width:0"
           inkscape:connector-curvature="0"
           id="path26844"
           d="m 483.46,438.53 -12.66,0 0,-0.8 c 3.15,-0.3 3.84,-0.69 3.84,-2.04 0,-0.7 -0.2,-1.8 -0.6,-3.19 l -6.52,-23.16 c -0.55,-1.95 -1.25,-2.69 -2.44,-2.69 -1.2,0 -1.75,0.65 -1.75,1.99 0,0.25 0,0.45 0.05,0.75 l 0,0.45 c 0,1.24 -1.14,2.34 -2.39,2.34 -1.34,0 -2.29,-1.1 -2.29,-2.69 0,-2.59 2.34,-4.39 5.83,-4.39 2.54,0 4.78,1 6.33,2.84 1.34,1.6 2.34,3.84 3.38,7.62 l 5.14,18.48 c 0.89,3 1.24,3.29 4.08,3.69 z" /><path
           style="fill:#000000;stroke-width:0"
           inkscape:connector-curvature="0"
           id="path26846"
           d="m 498.76,416.56 0,0.04 0,0.04 0,0.06 0,0.05 0,0.07 0,0.06 -0.01,0.16 -0.01,0.17 -0.02,0.2 -0.02,0.21 -0.03,0.22 -0.04,0.24 -0.04,0.25 -0.06,0.25 -0.06,0.27 -0.08,0.27 -0.09,0.27 -0.1,0.28 -0.11,0.27 -0.13,0.28 -0.14,0.27 -0.16,0.26 -0.18,0.26 -0.19,0.24 -0.22,0.24 -0.11,0.11 -0.12,0.11 -0.12,0.1 -0.13,0.1 -0.14,0.1 -0.14,0.09 -0.14,0.09 -0.16,0.08 -0.15,0.08 -0.17,0.07 -0.17,0.06 -0.17,0.06 -0.18,0.06 -0.19,0.04 -0.2,0.05 -0.2,0.03 -0.21,0.03 -0.21,0.02 -0.22,0.01 -0.23,0 -0.18,-0.76 c 1.6,0 2.22,-1.27 2.22,-3.35 l 0,0 c 0,-1.96 -0.62,-4.65 -1.53,-7.6 l -8.44,0 c 1.46,5.27 3.93,10.95 7.75,10.95 l 0.18,0.76 c -7.35,0 -12.58,-10.11 -12.58,-17.09 0,-1.31 0.21,-7.09 5.53,-7.09 l 0.68,0.8 c -2.14,0 -2.9,1.74 -2.9,4.18 0,1.78 0.43,3.97 0.98,6.18 l 8.44,0 c -1.2,-4.25 -2.59,-10.36 -6.52,-10.36 l -0.68,-0.8 c 8.29,0 12.1,12.36 12.1,17.96 z" /></g>    </g>
    <g
       transform="matrix(0.36216541,0,0,0.36216541,100.93351,383.91532)"
       id="g26974">
      <g
         style="font-style:normal;font-variant:normal;font-weight:normal;font-stretch:normal;letter-spacing:normal;word-spacing:normal;text-anchor:start;fill:none;fill-opacity:1;fill-rule:evenodd;stroke:#000000;stroke-linecap:butt;stroke-linejoin:miter;stroke-miterlimit:10.43299961;stroke-dasharray:none;stroke-dashoffset:0;stroke-opacity:1"
         id="g26976"
         transform="matrix(1.0629921,0,0,-1.0629921,-186.02362,789.27165)"
         xml:space="preserve"
         stroke-miterlimit="10.433"
         font-style="normal"
         font-variant="normal"
         font-weight="normal"
         font-stretch="normal"
         font-size-adjust="none"
         letter-spacing="normal"
         word-spacing="normal"><path
           style="fill:#000000;stroke-width:0"
           inkscape:connector-curvature="0"
           d="m 483.46,438.53 -12.66,0 0,-0.8 c 3.15,-0.3 3.84,-0.69 3.84,-2.04 0,-0.7 -0.2,-1.8 -0.6,-3.19 l -6.52,-23.16 c -0.55,-1.95 -1.25,-2.69 -2.44,-2.69 -1.2,0 -1.75,0.65 -1.75,1.99 0,0.25 0,0.45 0.05,0.75 l 0,0.45 c 0,1.24 -1.14,2.34 -2.39,2.34 -1.34,0 -2.29,-1.1 -2.29,-2.69 0,-2.59 2.34,-4.39 5.83,-4.39 2.54,0 4.78,1 6.33,2.84 1.34,1.6 2.34,3.84 3.38,7.62 l 5.14,18.48 c 0.89,3 1.24,3.29 4.08,3.69 z"
           id="path26978" /><path
           style="fill:#000000;stroke-width:0"
           inkscape:connector-curvature="0"
           d="m 496.69,413.18 0,0.11 -0.01,0.09 -0.02,0.1 -0.02,0.1 -0.02,0.09 -0.03,0.09 -0.03,0.09 -0.03,0.08 -0.04,0.09 -0.04,0.08 -0.05,0.07 -0.05,0.08 -0.05,0.07 -0.06,0.07 -0.06,0.07 -0.06,0.06 -0.07,0.06 -0.07,0.05 -0.07,0.06 -0.08,0.05 -0.07,0.04 -0.08,0.05 -0.09,0.03 -0.09,0.04 -0.08,0.03 -0.1,0.03 -0.09,0.02 -0.1,0.02 -0.09,0.02 -0.11,0.01 -0.1,0 -0.1,0.01 c -0.95,0 -2.07,-0.55 -3.09,-1.53 -1.6,-1.56 -3.17,-3.67 -3.78,-5.13 l -0.55,-1.31 1.96,7.89 -0.4,0.08 -6.36,-0.99 0,-0.61 1.02,0 c 0.98,0 1.89,-0.08 1.89,-0.84 0.03,-0.51 0,-0.51 -0.58,-2.98 l -2.98,-10.62 3.19,0 c 1.93,6.11 2.59,7.56 4.29,10.25 1.39,2.22 2.59,3.42 3.32,3.42 0.25,0 0.47,-0.14 0.68,-0.51 0.37,-0.61 0.7,-0.8 1.5,-0.8 1.23,0 1.89,0.66 1.85,1.82 z"
           id="path26980" /></g>    </g>
    <g
       id="g27154"
       transform="matrix(0.25963221,0,0,0.25963221,117.81942,369.01445)">
      <g
         word-spacing="normal"
         letter-spacing="normal"
         font-size-adjust="none"
         font-stretch="normal"
         font-weight="normal"
         font-variant="normal"
         font-style="normal"
         stroke-miterlimit="10.433"
         xml:space="preserve"
         transform="matrix(1.0629921,0,0,-1.0629921,-186.02362,789.27165)"
         id="g27156"
         style="font-style:normal;font-variant:normal;font-weight:normal;font-stretch:normal;letter-spacing:normal;word-spacing:normal;text-anchor:start;fill:none;fill-opacity:1;fill-rule:evenodd;stroke:#000000;stroke-linecap:butt;stroke-linejoin:miter;stroke-miterlimit:10.43299961;stroke-dasharray:none;stroke-dashoffset:0;stroke-opacity:1"><path
           id="path27158"
           d="m 460.79,425.12 1.14,0 c 0,0 0.11,0 0.16,0.06 0.64,0.29 1.94,-0.65 1.94,-1.4 0,-0.45 -1.8,-7.52 -3.54,-14.1 -1.35,-4.98 -2.54,-9.71 -2.89,-11.16 -0.55,-2.29 -1.19,-2.88 -3.33,-2.93 l 0,-0.8 10.21,0 0,0.75 c -2.35,0 -3.19,0.44 -3.19,1.49 0,0.7 0.84,4.58 1.84,8.27 1.25,-0.65 2.14,-0.85 3.29,-0.85 l -0.2,0.95 c -1.4,0 -2.39,0.74 -2.39,1.84 0,1.69 1.79,8.22 3.24,11.91 1.34,3.39 4.23,5.83 6.72,5.67 l 0,0 c 2.14,-0.09 3.09,-1.39 3.09,-4.28 0,-3.29 -1.45,-7.57 -3.59,-10.66 -2.09,-2.94 -4.48,-4.48 -7.07,-4.48 l 0.2,-0.95 c 7.27,0 14.94,8.37 14.94,16.29 0,3.88 -2.19,6.23 -5.73,6.23 -3.24,0 -5.63,-1.59 -8.51,-5.63 l 1.44,4.98 0.15,0.45 c 0,0 -0.05,0.05 -0.1,0.15 l -0.1,0.05 c 0,0.05 -0.05,0.05 -0.05,0.05 l -0.1,-0.05 -7.67,-1.1 z"
           inkscape:connector-curvature="0"
           style="fill:#000000;stroke-width:0" /><path
           id="path27160"
           d="m 500.27,427.98 -0.47,0.18 c -1.35,-2.07 -1.82,-2.4 -3.46,-2.4 l -8.68,0 6.1,6.4 c 3.24,3.39 4.66,6.15 4.66,8.98 0,3.64 -2.95,6.44 -6.73,6.44 -2,0 -3.89,-0.8 -5.24,-2.25 -1.16,-1.24 -1.7,-2.4 -2.32,-4.99 l 0.76,-0.18 c 1.45,3.57 2.77,4.73 5.27,4.73 3.06,0 5.13,-2.07 5.13,-5.13 0,-2.83 -1.67,-6.21 -4.73,-9.45 l -6.47,-6.87 0,-0.44 14.18,0 z"
           inkscape:connector-curvature="0"
           style="fill:#000000;stroke-width:0" /><path
           id="path27162"
           d="m 497.69,406.18 0,0.11 -0.01,0.09 -0.02,0.1 -0.02,0.1 -0.02,0.09 -0.03,0.09 -0.03,0.09 -0.03,0.08 -0.04,0.09 -0.04,0.08 -0.05,0.07 -0.05,0.08 -0.05,0.07 -0.06,0.07 -0.06,0.07 -0.06,0.06 -0.07,0.06 -0.07,0.05 -0.07,0.06 -0.08,0.05 -0.07,0.04 -0.08,0.05 -0.09,0.03 -0.09,0.04 -0.08,0.03 -0.1,0.03 -0.09,0.02 -0.1,0.02 -0.09,0.02 -0.11,0.01 -0.1,0 -0.1,0.01 c -0.95,0 -2.07,-0.55 -3.09,-1.53 -1.6,-1.56 -3.17,-3.67 -3.78,-5.13 l -0.55,-1.31 1.96,7.89 -0.4,0.08 -6.36,-0.99 0,-0.61 1.02,0 c 0.98,0 1.89,-0.08 1.89,-0.84 0.03,-0.51 0,-0.51 -0.58,-2.98 l -2.98,-10.62 3.19,0 c 1.93,6.11 2.59,7.56 4.29,10.25 1.39,2.22 2.59,3.42 3.32,3.42 0.25,0 0.47,-0.14 0.68,-0.51 0.37,-0.61 0.7,-0.8 1.5,-0.8 1.23,0 1.89,0.66 1.85,1.82 z"
           inkscape:connector-curvature="0"
           style="fill:#000000;stroke-width:0" /><polygon
           id="polygon27164"
           points="520.09,424.23 520.09,421.44 545.59,421.44 545.59,424.23 "
           style="fill:#000000;stroke-width:0" /><polygon
           id="polygon27166"
           points="520.09,414.12 520.09,411.33 545.59,411.33 545.59,414.12 "
           style="fill:#000000;stroke-width:0" /><path
           id="path27168"
           d="m 586.66,411.82 -0.64,0.25 c -1.85,-2.84 -2.5,-3.28 -4.74,-3.28 l -11.9,0 8.37,8.76 c 4.43,4.63 6.37,8.42 6.37,12.31 0,4.98 -4.03,8.81 -9.21,8.81 -2.75,0 -5.34,-1.09 -7.18,-3.08 -1.59,-1.7 -2.34,-3.29 -3.19,-6.83 l 1.05,-0.25 c 1.99,4.88 3.79,6.48 7.22,6.48 4.19,0 7.03,-2.84 7.03,-7.03 0,-3.88 -2.29,-8.51 -6.48,-12.95 l -8.86,-9.41 0,-0.6 19.42,0 z"
           inkscape:connector-curvature="0"
           style="fill:#000000;stroke-width:0" /><path
           id="path27170"
           d="m 620.58,437.53 -24.76,0 0,-0.8 c 3.09,-0.3 3.84,-0.69 3.84,-2.04 0,-0.55 -0.3,-2.29 -0.55,-3.19 l -6.13,-22.02 c -0.84,-2.84 -1.24,-3.18 -4.03,-3.68 l 0,-0.8 25.26,0 3.08,8.07 -0.79,0.4 c -2.34,-3.19 -3.64,-4.49 -5.78,-5.48 -1.84,-0.85 -5.23,-1.35 -8.97,-1.35 -2.79,0 -3.98,0.5 -3.98,1.7 0,0.55 0.55,2.89 1.79,7.27 0.65,2.19 1.1,3.84 1.6,5.73 1.74,-0.1 3.28,-0.15 3.88,-0.15 1.94,0.05 3.34,-0.25 3.89,-0.75 0.25,-0.25 0.34,-0.69 0.34,-1.54 0,-0.85 -0.09,-1.5 -0.34,-2.59 l 0.99,-0.25 3.39,11.55 -0.9,0.2 c -1.89,-4.23 -2.34,-4.53 -6.87,-4.73 -0.6,0 -2.19,-0.05 -3.94,-0.1 l 3.29,11.61 c 0.3,1.09 0.85,1.29 3.64,1.29 7.82,0 9.56,-0.64 9.56,-3.63 0,-0.65 -0.05,-1.4 -0.1,-2.24 l 1.05,-0.1 z"
           inkscape:connector-curvature="0"
           style="fill:#000000;stroke-width:0" /><polygon
           id="polygon27172"
           points="637.09,419.2 637.09,416.41 662.59,416.41 662.59,419.2 "
           style="fill:#000000;stroke-width:0" /><path
           id="path27174"
           d="m 709.23,417.6 -0.01,0.48 -0.03,0.48 -0.05,0.46 -0.06,0.45 -0.07,0.45 -0.09,0.43 -0.11,0.43 -0.11,0.41 -0.13,0.4 -0.13,0.39 -0.14,0.38 -0.15,0.37 -0.16,0.35 -0.16,0.34 -0.16,0.33 -0.17,0.31 -0.17,0.3 -0.16,0.29 -0.17,0.27 -0.17,0.25 -0.16,0.25 -0.15,0.22 -0.15,0.21 -0.15,0.19 -0.14,0.18 -0.12,0.16 -0.12,0.14 -0.11,0.13 -0.09,0.11 -0.08,0.09 -0.07,0.07 -0.05,0.05 -1.64,0 c 0.35,-0.6 1.54,-2.99 1.54,-6.53 0,-5.83 -3.79,-13.94 -8.72,-13.94 -1.84,0 -3.14,1.04 -3.14,2.83 0,4.99 2.7,9.67 2.7,10.81 0,0.2 -0.11,0.3 -0.3,0.3 l -2.4,0 c -1.54,0 -0.34,-13.94 -8.07,-13.94 -3.53,0 -3.73,3.48 -3.73,4.83 0,7.92 5.83,14.59 6.82,15.64 l -1.64,0 c -0.05,0 -9.71,-6.53 -9.71,-15.49 0,-3.09 1.64,-7.03 6.82,-7.03 6.13,0 7.92,5.08 7.92,5.13 l 0.05,0 c 0,-0.05 -0.1,-0.45 -0.1,-1.09 0,-1.55 0.65,-4.04 5.03,-4.04 6.33,0 12.36,6.78 12.36,13.15 z"
           inkscape:connector-curvature="0"
           style="fill:#000000;stroke-width:0" /><path
           id="path27176"
           d="m 729.27,427.98 -0.47,0.18 c -1.35,-2.07 -1.82,-2.4 -3.46,-2.4 l -8.68,0 6.1,6.4 c 3.24,3.39 4.66,6.15 4.66,8.98 0,3.64 -2.95,6.44 -6.73,6.44 -2,0 -3.89,-0.8 -5.24,-2.25 -1.16,-1.24 -1.7,-2.4 -2.32,-4.99 l 0.76,-0.18 c 1.45,3.57 2.77,4.73 5.27,4.73 3.06,0 5.13,-2.07 5.13,-5.13 0,-2.83 -1.67,-6.21 -4.73,-9.45 l -6.47,-6.87 0,-0.44 14.18,0 z"
           inkscape:connector-curvature="0"
           style="fill:#000000;stroke-width:0" /><path
           id="path27178"
           d="m 738.03,405 0.23,0.78 0.23,0.74 0.22,0.7 0.21,0.67 0.21,0.65 0.19,0.61 0.19,0.58 0.18,0.56 0.18,0.53 0.17,0.51 0.17,0.48 0.16,0.47 0.16,0.44 0.16,0.43 0.16,0.41 0.15,0.39 0.16,0.38 0.15,0.37 0.31,0.71 0.31,0.67 0.33,0.66 0.34,0.65 0.36,0.65 0.38,0.66 0.21,0.34 0.21,0.35 c 1.64,2.79 3.03,4.34 3.88,4.34 0.3,0 0.55,-0.2 0.8,-0.7 0.4,-0.85 0.79,-1.09 1.79,-1.09 1.45,0 2.29,0.89 2.29,2.44 0,1.54 -0.94,2.59 -2.34,2.59 -1.15,0 -2.49,-0.75 -3.78,-2.09 -2.05,-2.09 -4.04,-5.04 -4.84,-7.03 l -0.69,-1.79 2.64,10.81 -0.16,0.1 c -3.63,-0.65 -4.08,-0.75 -7.71,-1.35 l 0,-0.84 c 1.19,0.24 1.34,0.24 1.69,0.24 1.1,0 1.74,-0.49 1.74,-1.39 0,-0.7 0,-0.7 -0.79,-4.08 L 734.24,405 Z"
           inkscape:connector-curvature="0"
           style="fill:#000000;stroke-width:0" /><path
           id="path27180"
           d="m 772.27,427.98 -0.47,0.18 c -1.35,-2.07 -1.82,-2.4 -3.46,-2.4 l -8.68,0 6.1,6.4 c 3.24,3.39 4.66,6.15 4.66,8.98 0,3.64 -2.95,6.44 -6.73,6.44 -2,0 -3.89,-0.8 -5.24,-2.25 -1.16,-1.24 -1.7,-2.4 -2.32,-4.99 l 0.76,-0.18 c 1.45,3.57 2.77,4.73 5.27,4.73 3.06,0 5.13,-2.07 5.13,-5.13 0,-2.83 -1.67,-6.21 -4.73,-9.45 l -6.47,-6.87 0,-0.44 14.18,0 z"
           inkscape:connector-curvature="0"
           style="fill:#000000;stroke-width:0" /><polygon
           id="polygon27182"
           points="789.09,419.2 789.09,416.41 814.59,416.41 814.59,419.2 "
           style="fill:#000000;stroke-width:0" /><path
           id="path27184"
           d="m 853.42,427.56 -0.66,0.4 c -0.14,-0.32 -0.4,-0.65 -0.58,-0.94 -0.69,-1.13 -1.16,-1.53 -1.78,-1.53 -0.84,0 -1.74,1.17 -3.49,4.69 l -1.6,3.2 c 5.85,4.76 7.09,5.49 9.02,5.6 l -0.04,0.58 -7.24,0 0.04,-0.58 0.73,0 c 1.05,0 1.49,-0.25 1.52,-0.65 0,-0.73 -1.96,-1.97 -5.67,-4.95 l -1.78,-1.34 4.4,16.62 -0.4,0.18 c -2.44,-0.48 -3.96,-0.73 -6.36,-0.98 l 0,-0.59 0.72,0 c 1.46,0 2.11,-0.25 2.22,-0.91 -0.03,-0.61 -0.32,-1.56 -0.83,-3.27 l -0.33,-1.2 -0.04,-0.33 -4.69,-17.56 3.17,0 1.74,6.55 1.71,1.16 c 0.69,-1.6 1.82,-3.85 2.62,-5.13 1.38,-2.29 2.03,-2.98 3.23,-2.98 1.61,0 2.66,0.91 4.37,3.96 z"
           inkscape:connector-curvature="0"
           style="fill:#000000;stroke-width:0" /><path
           id="path27186"
           d="m 869.02,441.75 -0.36,0.14 c -1.01,-1.56 -1.37,-1.81 -2.61,-1.81 l -6.54,0 4.6,4.82 c 2.44,2.55 3.51,4.64 3.51,6.77 0,2.74 -2.22,4.85 -5.07,4.85 -1.51,0 -2.93,-0.6 -3.95,-1.7 -0.87,-0.93 -1.28,-1.8 -1.75,-3.75 l 0.58,-0.14 c 1.09,2.69 2.08,3.56 3.97,3.56 2.3,0 3.86,-1.56 3.86,-3.86 0,-2.14 -1.26,-4.68 -3.56,-7.12 l -4.88,-5.18 0,-0.33 10.69,0 z"
           inkscape:connector-curvature="0"
           style="fill:#000000;stroke-width:0" /><polyline
           id="polyline27188"
           points="835,416 872.08,416 872.08,418.88 835,418.88 "
           style="fill:#000000;fill-rule:nonzero;stroke-width:0" /><path
           id="path27190"
           d="m 852.69,398.18 0,0.11 -0.01,0.09 -0.02,0.1 -0.02,0.1 -0.02,0.09 -0.03,0.09 -0.03,0.09 -0.03,0.08 -0.04,0.09 -0.04,0.08 -0.05,0.07 -0.05,0.08 -0.05,0.07 -0.06,0.07 -0.06,0.07 -0.06,0.06 -0.07,0.06 -0.07,0.05 -0.07,0.06 -0.08,0.05 -0.07,0.04 -0.08,0.05 -0.09,0.03 -0.09,0.04 -0.08,0.03 -0.1,0.03 -0.09,0.02 -0.1,0.02 -0.09,0.02 -0.11,0.01 -0.1,0 -0.1,0.01 c -0.95,0 -2.07,-0.55 -3.09,-1.53 -1.61,-1.56 -3.17,-3.67 -3.79,-5.13 l -0.54,-1.31 1.96,7.89 -0.4,0.08 -6.36,-0.99 0,-0.61 1.02,0 c 0.98,0 1.89,-0.08 1.89,-0.84 0.03,-0.51 0,-0.51 -0.58,-2.98 l -2.99,-10.62 3.2,0 c 1.93,6.11 2.59,7.56 4.29,10.25 1.39,2.22 2.59,3.42 3.32,3.42 0.25,0 0.47,-0.14 0.68,-0.51 0.37,-0.61 0.69,-0.8 1.5,-0.8 1.23,0 1.89,0.66 1.85,1.82 z"
           inkscape:connector-curvature="0"
           style="fill:#000000;stroke-width:0" /><path
           id="path27192"
           d="m 868.02,398.75 -0.36,0.14 c -1.01,-1.56 -1.37,-1.81 -2.61,-1.81 l -6.54,0 4.6,4.82 c 2.44,2.55 3.51,4.64 3.51,6.77 0,2.74 -2.22,4.85 -5.07,4.85 -1.51,0 -2.93,-0.6 -3.95,-1.7 -0.87,-0.93 -1.28,-1.8 -1.75,-3.75 l 0.58,-0.14 c 1.09,2.69 2.08,3.56 3.97,3.56 2.3,0 3.86,-1.56 3.86,-3.86 0,-2.14 -1.26,-4.68 -3.56,-7.12 l -4.88,-5.18 0,-0.33 10.69,0 z"
           inkscape:connector-curvature="0"
           style="fill:#000000;stroke-width:0" /><path
           id="path27194"
           d="m 910.09,405.8 -0.25,0.02 -0.25,0.03 -0.23,0.02 -0.22,0.03 -0.2,0.04 -0.19,0.03 -0.18,0.04 -0.17,0.05 -0.16,0.05 -0.15,0.06 -0.14,0.06 -0.13,0.07 -0.12,0.08 -0.12,0.09 -0.1,0.09 -0.1,0.11 -0.09,0.11 -0.09,0.13 -0.08,0.14 -0.08,0.14 -0.07,0.16 -0.07,0.18 -0.06,0.18 -0.07,0.2 -0.06,0.22 -0.05,0.23 -0.06,0.24 -0.06,0.26 -0.03,0.14 -0.03,0.14 -0.02,0.15 -0.03,0.15 -0.03,0.15 -0.03,0.16 -0.03,0.16 -0.03,0.17 -4.69,28.19 -1.29,0 -14.44,-24.9 c -3.94,-6.63 -4.44,-7.17 -6.43,-7.57 l 0,-0.8 9.31,0 0,0.8 c -2.54,0.25 -2.93,0.5 -2.93,1.74 0,0.95 0.14,1.39 0.99,3.09 l 2.84,5.63 10.96,0 -0.25,1.79 -9.66,0 7.47,12.95 2.19,-12.95 0.25,-1.79 0.99,-6.53 c 0.06,-0.44 0.11,-0.89 0.11,-1.29 0,-1.9 -0.7,-2.34 -3.89,-2.64 l 0,-0.8 12.25,0 z"
           inkscape:connector-curvature="0"
           style="fill:#000000;stroke-width:0" /></g>    </g>
    <g
       id="g27660"
       transform="matrix(0.2621956,0,0,0.2621956,332.78898,370.37159)">
      <g
         word-spacing="normal"
         letter-spacing="normal"
         font-size-adjust="none"
         font-stretch="normal"
         font-weight="normal"
         font-variant="normal"
         font-style="normal"
         stroke-miterlimit="10.433"
         xml:space="preserve"
         transform="matrix(1.0629921,0,0,-1.0629921,-186.02362,789.27165)"
         id="g27662"
         style="font-style:normal;font-variant:normal;font-weight:normal;font-stretch:normal;letter-spacing:normal;word-spacing:normal;text-anchor:start;fill:none;fill-opacity:1;fill-rule:evenodd;stroke:#000000;stroke-linecap:butt;stroke-linejoin:miter;stroke-miterlimit:10.43299961;stroke-dasharray:none;stroke-dashoffset:0;stroke-opacity:1"><path
           id="path27664"
           d="m 460.79,426.12 1.14,0 c 0,0 0.11,0 0.16,0.06 0.64,0.29 1.94,-0.65 1.94,-1.4 0,-0.45 -1.8,-7.52 -3.54,-14.1 -1.35,-4.98 -2.54,-9.71 -2.89,-11.16 -0.55,-2.29 -1.19,-2.88 -3.33,-2.93 l 0,-0.8 10.21,0 0,0.75 c -2.35,0 -3.19,0.44 -3.19,1.49 0,0.7 0.84,4.58 1.84,8.27 1.25,-0.65 2.14,-0.85 3.29,-0.85 l -0.2,0.95 c -1.4,0 -2.39,0.74 -2.39,1.84 0,1.69 1.79,8.22 3.24,11.91 1.34,3.39 4.23,5.83 6.72,5.67 l 0,0 c 2.14,-0.09 3.09,-1.39 3.09,-4.28 0,-3.29 -1.45,-7.57 -3.59,-10.66 -2.09,-2.94 -4.48,-4.48 -7.07,-4.48 l 0.2,-0.95 c 7.27,0 14.94,8.37 14.94,16.29 0,3.88 -2.19,6.23 -5.73,6.23 -3.24,0 -5.63,-1.59 -8.51,-5.63 l 1.44,4.98 0.15,0.45 c 0,0 -0.05,0.05 -0.1,0.15 l -0.1,0.05 c 0,0.05 -0.05,0.05 -0.05,0.05 l -0.1,-0.05 -7.67,-1.1 z"
           inkscape:connector-curvature="0"
           style="fill:#000000;stroke-width:0" /><path
           id="path27666"
           d="m 500.27,428.98 -0.47,0.18 c -1.35,-2.07 -1.82,-2.4 -3.46,-2.4 l -8.68,0 6.1,6.4 c 3.24,3.39 4.66,6.15 4.66,8.98 0,3.64 -2.95,6.44 -6.73,6.44 -2,0 -3.89,-0.8 -5.24,-2.25 -1.16,-1.24 -1.7,-2.4 -2.32,-4.99 l 0.76,-0.18 c 1.45,3.57 2.77,4.73 5.27,4.73 3.06,0 5.13,-2.07 5.13,-5.13 0,-2.83 -1.67,-6.21 -4.73,-9.45 l -6.47,-6.87 0,-0.44 14.18,0 z"
           inkscape:connector-curvature="0"
           style="fill:#000000;stroke-width:0" /><path
           id="path27668"
           d="m 500.76,407.56 0,0.04 0,0.04 0,0.06 0,0.05 0,0.07 0,0.06 -0.01,0.16 -0.01,0.17 -0.02,0.2 -0.02,0.21 -0.03,0.22 -0.04,0.24 -0.04,0.25 -0.06,0.25 -0.06,0.27 -0.08,0.27 -0.09,0.27 -0.1,0.28 -0.11,0.27 -0.13,0.28 -0.14,0.27 -0.16,0.26 -0.18,0.26 -0.19,0.24 -0.22,0.24 -0.11,0.11 -0.12,0.11 -0.12,0.1 -0.13,0.1 -0.14,0.1 -0.14,0.09 -0.14,0.09 -0.16,0.08 -0.15,0.08 -0.17,0.07 -0.17,0.06 -0.17,0.06 -0.18,0.06 -0.19,0.04 -0.2,0.05 -0.2,0.03 -0.21,0.03 -0.21,0.02 -0.22,0.01 -0.23,0 -0.18,-0.76 c 1.6,0 2.22,-1.27 2.22,-3.35 l 0,0 c 0,-1.96 -0.62,-4.65 -1.53,-7.6 l -8.44,0 c 1.46,5.27 3.93,10.95 7.75,10.95 l 0.18,0.76 c -7.35,0 -12.58,-10.11 -12.58,-17.09 0,-1.31 0.21,-7.09 5.53,-7.09 l 0.68,0.8 c -2.14,0 -2.9,1.74 -2.9,4.18 0,1.78 0.43,3.97 0.98,6.18 l 8.44,0 c -1.2,-4.25 -2.59,-10.36 -6.52,-10.36 l -0.68,-0.8 c 8.29,0 12.1,12.36 12.1,17.96 z"
           inkscape:connector-curvature="0"
           style="fill:#000000;stroke-width:0" /><polygon
           id="polygon27670"
           points="547.59,422.44 547.59,425.23 522.09,425.23 522.09,422.44 "
           style="fill:#000000;stroke-width:0" /><polygon
           id="polygon27672"
           points="547.59,412.33 547.59,415.12 522.09,415.12 522.09,412.33 "
           style="fill:#000000;stroke-width:0" /><path
           id="path27674"
           d="m 597.09,406.8 -0.25,0.02 -0.25,0.03 -0.23,0.02 -0.22,0.03 -0.2,0.04 -0.19,0.03 -0.18,0.04 -0.17,0.05 -0.16,0.05 -0.15,0.06 -0.14,0.06 -0.13,0.07 -0.12,0.08 -0.12,0.09 -0.1,0.09 -0.1,0.11 -0.09,0.11 -0.09,0.13 -0.08,0.14 -0.08,0.14 -0.07,0.16 -0.07,0.18 -0.06,0.18 -0.07,0.2 -0.06,0.22 -0.05,0.23 -0.06,0.24 -0.06,0.26 -0.03,0.14 -0.03,0.14 -0.02,0.15 -0.03,0.15 -0.03,0.15 -0.03,0.16 -0.03,0.16 -0.03,0.17 -4.69,28.19 -1.29,0 -14.44,-24.9 c -3.94,-6.63 -4.44,-7.17 -6.43,-7.57 l 0,-0.8 9.31,0 0,0.8 c -2.54,0.25 -2.93,0.5 -2.93,1.74 0,0.95 0.14,1.39 0.99,3.09 l 2.84,5.63 10.96,0 -0.25,1.79 -9.66,0 7.47,12.95 2.19,-12.95 0.25,-1.79 0.99,-6.53 c 0.06,-0.44 0.11,-0.89 0.11,-1.29 0,-1.9 -0.7,-2.34 -3.89,-2.64 l 0,-0.8 12.25,0 z"
           inkscape:connector-curvature="0"
           style="fill:#000000;stroke-width:0" /><polygon
           id="polygon27676"
           points="638.59,417.41 638.59,420.2 613.09,420.2 613.09,417.41 "
           style="fill:#000000;stroke-width:0" /><path
           id="path27678"
           d="m 715.85,440.95 -2.69,-0.37 c -1.05,-2.8 -4.18,-7.09 -4.18,-7.13 l -0.03,0 c 0,0.04 0.94,1.6 0.94,3.53 0,2.4 -0.98,5.06 -5.49,5.06 l -0.84,-0.91 c 2.73,0 2.99,-3.09 2.99,-4.4 l 0,0 c 0,-3.46 -1.71,-7.42 -1.71,-7.46 0,-0.03 -1.97,-2.76 -4.91,-2.76 -0.84,0 -2.95,0.25 -2.95,4.91 0,1.85 0.99,9.71 6.58,9.71 l 0.84,0.91 c -7.09,0 -11.45,-6.44 -11.45,-10.84 0,-3.09 1.78,-5.6 6.07,-5.6 3.23,0 5.71,2.22 5.71,2.26 l 0.03,0 c 0,-0.3 0.08,-2.19 3.13,-2.19 3.31,0 5.27,3.28 5.27,4.11 0,0.11 -0.07,0.18 -0.14,0.18 -0.51,0 -1.42,-2.98 -3.68,-2.98 -0.87,0 -1.09,0.91 -1.09,1.86 0,0.8 0.11,1.63 0.26,2 0.54,0.69 7.34,10.07 7.34,10.11 z"
           inkscape:connector-curvature="0"
           style="fill:#000000;stroke-width:0" /><polyline
           id="polyline27680"
           points="659,418 751.16,418 751.16,420.88 659,420.88 "
           style="fill:#000000;fill-rule:nonzero;stroke-width:0" /><path
           id="path27682"
           d="m 673.98,391.34 -0.51,0.33 c -1.74,-2.54 -3.05,-3.42 -5.13,-3.42 -3.34,0 -5.63,2.91 -5.63,7.09 0,3.79 2,6.33 4.95,6.33 1.31,0 1.78,-0.4 2.14,-1.74 l 0.22,-0.8 c 0.29,-1.06 0.95,-1.68 1.74,-1.68 0.95,0 1.71,0.69 1.71,1.53 0,2.04 -2.54,3.75 -5.6,3.75 -1.71,0 -3.45,-0.66 -4.9,-1.86 -1.97,-1.64 -3.06,-4.14 -3.06,-7.16 0,-4.69 2.87,-8.07 6.91,-8.07 1.56,0 2.94,0.5 4.18,1.52 1.09,0.88 1.82,1.93 2.98,4.18 z"
           inkscape:connector-curvature="0"
           style="fill:#000000;stroke-width:0" /><path
           id="path27684"
           d="m 692.09,394.51 -0.01,0.44 -0.03,0.44 -0.05,0.42 -0.06,0.42 -0.09,0.41 -0.1,0.4 -0.12,0.38 -0.14,0.38 -0.15,0.37 -0.17,0.36 -0.18,0.34 -0.2,0.33 -0.22,0.32 -0.23,0.31 -0.24,0.29 -0.26,0.28 -0.28,0.27 -0.28,0.25 -0.3,0.24 -0.31,0.22 -0.33,0.21 -0.33,0.19 -0.35,0.18 -0.36,0.15 -0.36,0.14 -0.38,0.13 -0.39,0.1 -0.4,0.09 -0.41,0.07 -0.41,0.05 -0.43,0.03 -0.43,0.01 c -4.73,0 -8.04,-3.5 -8.04,-8.51 0,-4.91 3.39,-8.58 7.97,-8.58 l 0.43,1.02 c -1.42,0 -2.76,0.87 -3.52,2.32 -1.02,1.89 -1.6,4.44 -1.6,7.02 0,3.45 1.7,5.71 4.29,5.71 3.05,0 5.2,-3.49 5.2,-8.47 l 0,0 c 0,-4.11 -1.64,-6.58 -4.37,-6.58 l -0.43,-1.02 c 4.58,0 8.07,3.85 8.07,8.87 z"
           inkscape:connector-curvature="0"
           style="fill:#000000;stroke-width:0" /><path
           id="path27686"
           d="m 705.66,390.29 -0.01,0.17 0,0.16 -0.02,0.17 -0.01,0.15 -0.03,0.16 -0.03,0.15 -0.03,0.15 -0.04,0.15 -0.05,0.14 -0.05,0.15 -0.05,0.14 -0.07,0.13 -0.07,0.14 -0.07,0.13 -0.08,0.13 -0.09,0.14 -0.1,0.12 -0.1,0.13 -0.1,0.13 -0.12,0.12 -0.12,0.13 -0.13,0.12 -0.13,0.12 -0.15,0.12 -0.15,0.13 -0.15,0.12 -0.17,0.12 -0.17,0.12 -0.18,0.12 -0.19,0.12 -0.19,0.12 -0.21,0.13 -3.93,2.33 c -1.01,0.58 -1.56,1.49 -1.56,2.47 0,1.49 1.13,2.47 2.8,2.47 2.07,0 3.16,-1.2 4,-4.47 l 0.54,0 -0.14,4.94 -0.4,0 -0.07,-0.07 c -0.33,-0.25 -0.37,-0.29 -0.51,-0.29 -0.22,0 -0.58,0.07 -0.99,0.25 -0.76,0.3 -1.59,0.44 -2.47,0.44 -2.98,0 -5.02,-1.82 -5.02,-4.47 0,-2.04 1.17,-3.46 4.26,-5.24 l 2.11,-1.2 c 1.27,-0.73 1.89,-1.6 1.89,-2.73 0,-1.6 -1.16,-2.61 -3.02,-2.61 -2.51,0 -3.78,1.38 -4.62,5.09 l -0.58,0 0,-5.67 0.47,0 c 0.26,0.36 0.4,0.43 0.84,0.43 0.4,0 0.8,-0.07 1.67,-0.29 1.02,-0.22 1.93,-0.36 2.69,-0.36 2.77,0 5.1,2.11 5.1,4.65 z"
           inkscape:connector-curvature="0"
           style="fill:#000000;stroke-width:0" /><path
           id="path27688"
           d="m 720.02,399.75 -0.36,0.14 c -1.01,-1.56 -1.37,-1.81 -2.61,-1.81 l -6.54,0 4.6,4.82 c 2.44,2.55 3.51,4.64 3.51,6.77 0,2.74 -2.22,4.85 -5.07,4.85 -1.51,0 -2.93,-0.6 -3.95,-1.7 -0.87,-0.93 -1.28,-1.8 -1.75,-3.75 l 0.58,-0.14 c 1.09,2.69 2.08,3.56 3.97,3.56 2.3,0 3.86,-1.56 3.86,-3.86 0,-2.14 -1.26,-4.68 -3.56,-7.12 l -4.88,-5.18 0,-0.33 10.69,0 z"
           inkscape:connector-curvature="0"
           style="fill:#000000;stroke-width:0" /><path
           id="path27690"
           d="m 748.76,403.56 0,0.04 0,0.04 0,0.06 0,0.05 0,0.07 0,0.06 -0.01,0.16 -0.01,0.17 -0.02,0.2 -0.02,0.21 -0.03,0.22 -0.04,0.24 -0.04,0.25 -0.06,0.25 -0.06,0.27 -0.08,0.27 -0.09,0.27 -0.1,0.28 -0.11,0.27 -0.13,0.28 -0.14,0.27 -0.16,0.26 -0.18,0.26 -0.19,0.24 -0.22,0.24 -0.11,0.11 -0.12,0.11 -0.12,0.1 -0.13,0.1 -0.14,0.1 -0.14,0.09 -0.14,0.09 -0.16,0.08 -0.15,0.08 -0.17,0.07 -0.17,0.06 -0.17,0.06 -0.18,0.06 -0.19,0.04 -0.2,0.05 -0.2,0.03 -0.21,0.03 -0.21,0.02 -0.22,0.01 -0.23,0 -0.18,-0.76 c 1.6,0 2.22,-1.27 2.22,-3.35 l 0,0 c 0,-1.96 -0.62,-4.65 -1.53,-7.6 l -8.44,0 c 1.46,5.27 3.93,10.95 7.75,10.95 l 0.18,0.76 c -7.35,0 -12.58,-10.11 -12.58,-17.09 0,-1.31 0.21,-7.09 5.53,-7.09 l 0.68,0.8 c -2.14,0 -2.9,1.74 -2.9,4.18 0,1.78 0.43,3.97 0.98,6.18 l 8.43,0 c -1.19,-4.25 -2.58,-10.36 -6.51,-10.36 l -0.68,-0.8 c 8.29,0 12.1,12.36 12.1,17.96 z"
           inkscape:connector-curvature="0"
           style="fill:#000000;stroke-width:0" /><polygon
           id="polygon27692"
           points="796.59,417.41 796.59,420.2 771.09,420.2 771.09,417.41 "
           style="fill:#000000;stroke-width:0" /><path
           id="path27694"
           d="m 868.87,450.64 -0.01,0.26 -0.02,0.26 -0.04,0.24 -0.05,0.24 -0.07,0.23 -0.08,0.22 -0.1,0.21 -0.11,0.2 -0.12,0.19 -0.14,0.19 -0.15,0.17 -0.16,0.17 -0.17,0.16 -0.19,0.15 -0.19,0.14 -0.21,0.13 -0.21,0.13 -0.23,0.11 -0.24,0.11 -0.24,0.1 -0.26,0.09 -0.26,0.09 -0.27,0.07 -0.28,0.07 -0.29,0.06 -0.29,0.05 -0.31,0.04 -0.3,0.03 -0.32,0.03 -0.32,0.02 -0.33,0.01 -0.33,0.01 -0.51,-1.02 c 2.33,0 3.2,-1.42 3.2,-3.09 l 0,0 c 0,-1.67 -1.09,-5.78 -4.4,-5.78 -0.87,0 -1.6,0.14 -2.25,0.14 -1.13,0 -1.89,-0.84 -1.89,-1.49 0,-0.4 0.32,-0.72 1.05,-0.72 1.13,0 1.42,0.18 2.33,0.18 2,0 2.91,-1.97 2.91,-4 0,-3.64 -2.33,-6.99 -6.47,-6.99 -2.62,0 -4.3,1.28 -4.3,3.39 0,0.43 0.08,0.9 0.22,1.42 l 3.24,11.67 c 0.73,2.36 2.65,5.27 6.36,5.27 l 0.51,1.02 c -4.55,0 -8.94,-2.59 -10.14,-6.26 l -5.68,-20.29 c -0.65,-2.29 -2.14,-4.32 -2.54,-4.8 l 3.78,0 c 0.03,0 0.69,0.29 2.07,4.84 l 1.31,4.69 0.04,0 c 0,-0.04 1.34,-2.62 5.38,-2.62 6,0 10.11,4.07 10.11,8.26 0,4.54 -5.24,5.23 -5.27,5.23 l 0,0.15 c 0.03,0 7.23,1.31 7.23,6.62 z"
           inkscape:connector-curvature="0"
           style="fill:#000000;stroke-width:0" /><polyline
           id="polyline27696"
           points="816,418 902.16,418 902.16,420.88 816,420.88 "
           style="fill:#000000;fill-rule:nonzero;stroke-width:0" /><path
           id="path27698"
           d="m 828.66,388.29 -0.01,0.17 0,0.16 -0.02,0.17 -0.01,0.15 -0.03,0.16 -0.03,0.15 -0.03,0.15 -0.04,0.15 -0.05,0.14 -0.05,0.15 -0.05,0.14 -0.07,0.13 -0.07,0.14 -0.07,0.13 -0.08,0.13 -0.09,0.14 -0.1,0.12 -0.1,0.13 -0.1,0.13 -0.12,0.12 -0.12,0.13 -0.13,0.12 -0.13,0.12 -0.15,0.12 -0.15,0.13 -0.15,0.12 -0.17,0.12 -0.17,0.12 -0.18,0.12 -0.19,0.12 -0.19,0.12 -0.21,0.13 -3.93,2.33 c -1.01,0.58 -1.56,1.49 -1.56,2.47 0,1.49 1.13,2.47 2.8,2.47 2.07,0 3.16,-1.2 4,-4.47 l 0.54,0 -0.14,4.94 -0.4,0 -0.07,-0.07 c -0.33,-0.25 -0.37,-0.29 -0.51,-0.29 -0.22,0 -0.58,0.07 -0.99,0.25 -0.76,0.3 -1.59,0.44 -2.47,0.44 -2.98,0 -5.02,-1.82 -5.02,-4.47 0,-2.04 1.17,-3.46 4.26,-5.24 l 2.11,-1.2 c 1.27,-0.73 1.89,-1.6 1.89,-2.73 0,-1.6 -1.16,-2.61 -3.02,-2.61 -2.51,0 -3.78,1.38 -4.62,5.09 l -0.58,0 0,-5.67 0.47,0 c 0.26,0.36 0.4,0.43 0.84,0.43 0.4,0 0.8,-0.07 1.67,-0.29 1.02,-0.22 1.93,-0.36 2.69,-0.36 2.77,0 5.1,2.11 5.1,4.65 z"
           inkscape:connector-curvature="0"
           style="fill:#000000;stroke-width:0" /><path
           id="path27700"
           d="m 840.2,384 0,0.55 c -2.4,0.18 -2.69,0.54 -2.69,3.16 l 0,12.91 -0.15,0.11 -5.63,-2 0,-0.55 0.29,0.04 c 0.43,0.07 0.91,0.11 1.23,0.11 0.88,0 1.2,-0.58 1.2,-2.19 l 0,-8.43 c 0,-2.62 -0.36,-3.02 -2.87,-3.16 l 0,-0.55 z"
           inkscape:connector-curvature="0"
           style="fill:#000000;stroke-width:0" /><path
           id="path27702"
           d="m 837.84,405.45 -0.01,0.1 0,0.09 -0.01,0.09 -0.02,0.1 -0.02,0.09 -0.02,0.08 -0.03,0.09 -0.04,0.08 -0.03,0.09 -0.04,0.08 -0.05,0.07 -0.04,0.08 -0.05,0.07 -0.06,0.07 -0.06,0.07 -0.06,0.06 -0.06,0.07 -0.07,0.05 -0.07,0.06 -0.07,0.05 -0.07,0.05 -0.08,0.04 -0.08,0.05 -0.08,0.03 -0.09,0.04 -0.09,0.03 -0.09,0.02 -0.09,0.02 -0.09,0.02 -0.1,0.01 -0.09,0.01 -0.1,0 c -1.01,0 -1.85,-0.84 -1.85,-1.86 0,-1.05 0.84,-1.85 1.85,-1.85 1.05,0 1.86,0.8 1.86,1.85 z"
           inkscape:connector-curvature="0"
           style="fill:#000000;stroke-width:0" /><path
           id="path27704"
           d="m 858.64,384 0,0.55 c -1.79,0.18 -2.22,0.61 -2.22,2.4 l 0,8.32 c 0,3.42 -1.6,5.46 -4.29,5.46 -1.68,0 -2.8,-0.62 -5.28,-2.95 l 0,2.88 -0.25,0.07 c -1.78,-0.66 -3.02,-1.06 -5.02,-1.64 l 0,-0.62 c 0.22,0.11 0.58,0.15 0.98,0.15 1.02,0 1.35,-0.55 1.35,-2.33 l 0,-9.02 c 0,-2.07 -0.4,-2.58 -2.25,-2.72 l 0,-0.55 7.7,0 0,0.55 c -1.85,0.14 -2.39,0.58 -2.39,1.89 l 0,10.22 c 1.74,1.63 2.54,2.07 3.74,2.07 1.78,0 2.65,-1.13 2.65,-3.53 l 0,-7.6 c 0,-2.29 -0.47,-2.91 -2.29,-3.05 l 0,-0.55 z"
           inkscape:connector-curvature="0"
           style="fill:#000000;stroke-width:0" /><path
           id="path27706"
           d="m 872.02,399.75 -0.36,0.14 c -1.01,-1.56 -1.37,-1.81 -2.61,-1.81 l -6.54,0 4.6,4.82 c 2.44,2.55 3.51,4.64 3.51,6.77 0,2.74 -2.22,4.85 -5.07,4.85 -1.51,0 -2.93,-0.6 -3.95,-1.7 -0.87,-0.93 -1.28,-1.8 -1.75,-3.75 l 0.58,-0.14 c 1.09,2.69 2.08,3.56 3.97,3.56 2.3,0 3.86,-1.56 3.86,-3.86 0,-2.14 -1.26,-4.68 -3.56,-7.12 l -4.88,-5.18 0,-0.33 10.69,0 z"
           inkscape:connector-curvature="0"
           style="fill:#000000;stroke-width:0" /><path
           id="path27708"
           d="m 900.76,401.56 0,0.04 0,0.04 0,0.06 0,0.05 0,0.07 0,0.06 -0.01,0.16 -0.01,0.17 -0.02,0.2 -0.02,0.21 -0.03,0.22 -0.04,0.24 -0.04,0.25 -0.06,0.25 -0.06,0.27 -0.08,0.27 -0.09,0.27 -0.1,0.28 -0.11,0.27 -0.13,0.28 -0.14,0.27 -0.16,0.26 -0.18,0.26 -0.19,0.24 -0.22,0.24 -0.11,0.11 -0.12,0.11 -0.12,0.1 -0.13,0.1 -0.14,0.1 -0.14,0.09 -0.14,0.09 -0.16,0.08 -0.15,0.08 -0.17,0.07 -0.17,0.06 -0.17,0.06 -0.18,0.06 -0.19,0.04 -0.2,0.05 -0.2,0.03 -0.21,0.03 -0.21,0.02 -0.22,0.01 -0.23,0 -0.18,-0.76 c 1.6,0 2.22,-1.27 2.22,-3.35 l 0,0 c 0,-1.96 -0.62,-4.65 -1.53,-7.6 l -8.44,0 c 1.46,5.27 3.93,10.95 7.75,10.95 l 0.18,0.76 c -7.35,0 -12.58,-10.11 -12.58,-17.09 0,-1.31 0.21,-7.09 5.53,-7.09 l 0.68,0.8 c -2.14,0 -2.9,1.74 -2.9,4.18 0,1.78 0.43,3.97 0.98,6.18 l 8.43,0 c -1.19,-4.25 -2.58,-10.36 -6.51,-10.36 l -0.68,-0.8 c 8.29,0 12.1,12.36 12.1,17.96 z"
           inkscape:connector-curvature="0"
           style="fill:#000000;stroke-width:0" /></g>    </g>
  </g>
</svg>
