<?xml version="1.0" encoding="UTF-8" standalone="no"?>
<!-- Created with Inkscape (http://www.inkscape.org/) -->

<svg
   xmlns:dc="http://purl.org/dc/elements/1.1/"
   xmlns:cc="http://creativecommons.org/ns#"
   xmlns:rdf="http://www.w3.org/1999/02/22-rdf-syntax-ns#"
   xmlns:svg="http://www.w3.org/2000/svg"
   xmlns="http://www.w3.org/2000/svg"
   xmlns:sodipodi="http://sodipodi.sourceforge.net/DTD/sodipodi-0.dtd"
   xmlns:inkscape="http://www.inkscape.org/namespaces/inkscape"
   width="210mm"
   height="297mm"
   viewBox="0 0 744.09448819 1052.3622047"
   id="svg2"
   version="1.1"
   inkscape:version="0.91 r13725"
   sodipodi:docname="esfera.svg">
  <sodipodi:namedview
     id="base"
     pagecolor="#ffffff"
     bordercolor="#666666"
     borderopacity="1.0"
     inkscape:pageopacity="0.0"
     inkscape:pageshadow="2"
     inkscape:zoom="1.979899"
     inkscape:cx="390.40946"
     inkscape:cy="598.20403"
     inkscape:document-units="px"
     inkscape:current-layer="layer1"
     showgrid="false"
     inkscape:window-width="1366"
     inkscape:window-height="741"
     inkscape:window-x="0"
     inkscape:window-y="25"
     inkscape:window-maximized="0"
     showguides="true">
    <inkscape:grid
       type="xygrid"
       id="grid4140" />
  </sodipodi:namedview>
  <defs
     id="defs4">
    <marker
       inkscape:stockid="Arrow1Mend"
       orient="auto"
       refY="0.0"
       refX="0.0"
       id="marker6192"
       style="overflow:visible;"
       inkscape:isstock="true">
      <path
         id="path6194"
         d="M 0.0,0.0 L 5.0,-5.0 L -12.5,0.0 L 5.0,5.0 L 0.0,0.0 z "
         style="fill-rule:evenodd;stroke:#000000;stroke-width:1pt;stroke-opacity:1;fill:#000000;fill-opacity:1"
         transform="scale(0.4) rotate(180) translate(10,0)" />
    </marker>
    <marker
       inkscape:isstock="true"
       style="overflow:visible"
       id="marker6148"
       refX="0.0"
       refY="0.0"
       orient="auto"
       inkscape:stockid="Arrow1Mstart">
      <path
         transform="scale(0.4) translate(10,0)"
         style="fill-rule:evenodd;stroke:#000000;stroke-width:1pt;stroke-opacity:1;fill:#000000;fill-opacity:1"
         d="M 0.0,0.0 L 5.0,-5.0 L -12.5,0.0 L 5.0,5.0 L 0.0,0.0 z "
         id="path6150" />
    </marker>
    <marker
       inkscape:isstock="true"
       style="overflow:visible;"
       id="marker4860"
       refX="0.0"
       refY="0.0"
       orient="auto"
       inkscape:stockid="Arrow1Mend"
       inkscape:collect="always">
      <path
         transform="scale(0.4) rotate(180) translate(10,0)"
         style="fill-rule:evenodd;stroke:#000000;stroke-width:1pt;stroke-opacity:1;fill:#000000;fill-opacity:1"
         d="M 0.0,0.0 L 5.0,-5.0 L -12.5,0.0 L 5.0,5.0 L 0.0,0.0 z "
         id="path4862" />
    </marker>
    <marker
       inkscape:stockid="Arrow1Mstart"
       orient="auto"
       refY="0.0"
       refX="0.0"
       id="marker4790"
       style="overflow:visible"
       inkscape:isstock="true"
       inkscape:collect="always">
      <path
         id="path4792"
         d="M 0.0,0.0 L 5.0,-5.0 L -12.5,0.0 L 5.0,5.0 L 0.0,0.0 z "
         style="fill-rule:evenodd;stroke:#000000;stroke-width:1pt;stroke-opacity:1;fill:#000000;fill-opacity:1"
         transform="scale(0.4) translate(10,0)" />
    </marker>
    <marker
       inkscape:isstock="true"
       style="overflow:visible;"
       id="marker4700"
       refX="0.0"
       refY="0.0"
       orient="auto"
       inkscape:stockid="Arrow1Mend">
      <path
         transform="scale(0.4) rotate(180) translate(10,0)"
         style="fill-rule:evenodd;stroke:#000000;stroke-width:1pt;stroke-opacity:1;fill:#000000;fill-opacity:1"
         d="M 0.0,0.0 L 5.0,-5.0 L -12.5,0.0 L 5.0,5.0 L 0.0,0.0 z "
         id="path4702" />
    </marker>
    <marker
       inkscape:stockid="Arrow1Mend"
       orient="auto"
       refY="0.0"
       refX="0.0"
       id="Arrow1Mend"
       style="overflow:visible;"
       inkscape:isstock="true"
       inkscape:collect="always">
      <path
         id="path4241"
         d="M 0.0,0.0 L 5.0,-5.0 L -12.5,0.0 L 5.0,5.0 L 0.0,0.0 z "
         style="fill-rule:evenodd;stroke:#000000;stroke-width:1pt;stroke-opacity:1;fill:#000000;fill-opacity:1"
         transform="scale(0.4) rotate(180) translate(10,0)" />
    </marker>
    <marker
       inkscape:stockid="Arrow1Mstart"
       orient="auto"
       refY="0.0"
       refX="0.0"
       id="Arrow1Mstart"
       style="overflow:visible"
       inkscape:isstock="true"
       inkscape:collect="always">
      <path
         id="path4238"
         d="M 0.0,0.0 L 5.0,-5.0 L -12.5,0.0 L 5.0,5.0 L 0.0,0.0 z "
         style="fill-rule:evenodd;stroke:#000000;stroke-width:1pt;stroke-opacity:1;fill:#000000;fill-opacity:1"
         transform="scale(0.4) translate(10,0)" />
    </marker>
    <marker
       inkscape:stockid="Arrow1Lend"
       orient="auto"
       refY="0.0"
       refX="0.0"
       id="Arrow1Lend"
       style="overflow:visible;"
       inkscape:isstock="true">
      <path
         id="path4235"
         d="M 0.0,0.0 L 5.0,-5.0 L -12.5,0.0 L 5.0,5.0 L 0.0,0.0 z "
         style="fill-rule:evenodd;stroke:#000000;stroke-width:1pt;stroke-opacity:1;fill:#000000;fill-opacity:1"
         transform="scale(0.8) rotate(180) translate(12.5,0)" />
    </marker>
    <marker
       inkscape:stockid="Arrow1Lstart"
       orient="auto"
       refY="0.0"
       refX="0.0"
       id="Arrow1Lstart"
       style="overflow:visible"
       inkscape:isstock="true">
      <path
         id="path4232"
         d="M 0.0,0.0 L 5.0,-5.0 L -12.5,0.0 L 5.0,5.0 L 0.0,0.0 z "
         style="fill-rule:evenodd;stroke:#000000;stroke-width:1pt;stroke-opacity:1;fill:#000000;fill-opacity:1"
         transform="scale(0.8) translate(12.5,0)" />
    </marker>
  </defs>
  <metadata
     id="metadata7">
    <rdf:RDF>
      <cc:Work
         rdf:about="">
        <dc:format>image/svg+xml</dc:format>
        <dc:type
           rdf:resource="http://purl.org/dc/dcmitype/StillImage" />
        <dc:title></dc:title>
      </cc:Work>
    </rdf:RDF>
  </metadata>
  <g
     inkscape:label="Capa 1"
     inkscape:groupmode="layer"
     id="layer1">
    <circle
       style="fill:none;fill-opacity:0.76744187;fill-rule:nonzero;stroke:#000000;stroke-width:1;stroke-linecap:butt;stroke-linejoin:miter;stroke-miterlimit:4;stroke-dasharray:none;stroke-dashoffset:0;stroke-opacity:1"
       id="path4148"
       cy="420.01126"
       cx="355.40869"
       r="87.880692" />
    <ellipse
       cx="355.40869"
       cy="420.04944"
       id="circle4150"
       style="fill:none;fill-opacity:0.76744187;fill-rule:nonzero;stroke:#000000;stroke-width:1;stroke-linecap:butt;stroke-linejoin:miter;stroke-miterlimit:4;stroke-dasharray:1, 1.99999999;stroke-dashoffset:0.40000001;stroke-opacity:1"
       rx="87.670753"
       ry="25.695646" />
    <path
       style="fill:none;fill-opacity:0.76744187;fill-rule:nonzero;stroke:#000000;stroke-width:1;stroke-linecap:butt;stroke-linejoin:miter;stroke-miterlimit:4;stroke-dasharray:none;stroke-dashoffset:0;stroke-opacity:1"
       id="ellipse4156"
       sodipodi:type="arc"
       sodipodi:cx="355.40869"
       sodipodi:cy="420.04944"
       sodipodi:rx="87.670753"
       sodipodi:ry="25.695646"
       sodipodi:start="0"
       sodipodi:end="3.1424565"
       sodipodi:open="true"
       d="m 443.07944,420.04944 a 87.670753,25.695646 0 0 1 -43.85724,22.25678 87.670753,25.695646 0 0 1 -87.6926,-0.0111 87.670753,25.695646 0 0 1 -43.79163,-22.26788" />
    <circle
       id="path4160"
       style="fill:#000000;stroke:none"
       cx="355"
       cy="422.36221"
       r="1.5" />
    <circle
       id="path4162"
       style="fill:none;stroke:none;fill-opacity:1"
       cx="540"
       cy="542.36218"
       r="1.5" />
    <path
       style="fill:none;fill-rule:evenodd;stroke:#ff0000;stroke-width:1;stroke-linecap:butt;stroke-linejoin:miter;stroke-opacity:1;stroke-miterlimit:4;stroke-dasharray:none;stroke-dashoffset:0"
       d="m 355,422.3622 185,120"
       id="path4164"
       inkscape:connector-curvature="0" />
    <path
       style="fill:none;fill-rule:evenodd;stroke:#000000;stroke-width:0.99999988;stroke-linecap:butt;stroke-linejoin:miter;stroke-miterlimit:4;stroke-dasharray:1.99999999, 1;stroke-dashoffset:0;stroke-opacity:1"
       d="m 355,316.40791 0,205.9787 0,69.82329"
       id="path4166"
       inkscape:connector-curvature="0" />
    <circle
       id="path4168"
       style="fill:none;stroke:none;fill-opacity:1"
       cx="355"
       cy="507.36221"
       r="1.5" />
    <path
       style="fill:none;fill-opacity:1;fill-rule:evenodd;stroke:#000000;stroke-width:1;stroke-linecap:butt;stroke-linejoin:miter;stroke-miterlimit:4;stroke-dasharray:3, 1;stroke-dashoffset:0;stroke-opacity:1"
       d="m 354.99797,507.36005 -84.89442,75.95039"
       id="path4170"
       inkscape:connector-curvature="0" />
    <path
       style="fill:none;fill-rule:evenodd;stroke:#000000;stroke-width:1;stroke-linecap:butt;stroke-linejoin:miter;stroke-miterlimit:4;stroke-dasharray:3.00000001, 1;stroke-dashoffset:0;stroke-opacity:1"
       d="m 224.80715,507.36218 158.03147,0 188.6182,0"
       id="path4172"
       inkscape:connector-curvature="0" />
    <path
       style="fill:none;fill-rule:evenodd;stroke:#ff0000;stroke-width:1px;stroke-linecap:butt;stroke-linejoin:miter;stroke-opacity:1;fill-opacity:1"
       d="m 355,507.3622 185,35"
       id="path4174"
       inkscape:connector-curvature="0" />
    <path
       style="fill:none;fill-opacity:1;fill-rule:nonzero;stroke:#00ff00;stroke-width:1;stroke-linecap:butt;stroke-linejoin:miter;stroke-miterlimit:4;stroke-dasharray:none;stroke-dashoffset:0;stroke-opacity:1"
       id="path4176"
       sodipodi:type="arc"
       sodipodi:cx="355.23062"
       sodipodi:cy="508.00037"
       sodipodi:rx="75.814667"
       sodipodi:ry="19.831312"
       sodipodi:start="0.62317704"
       sodipodi:end="1.8650705"
       d="m 416.79428,519.57428 a 75.814667,19.831312 0 0 1 -83.55335,7.40491"
       sodipodi:open="true" />
    <path
       style="fill:none;fill-opacity:1;fill-rule:nonzero;stroke:#0000ff;stroke-width:1;stroke-linecap:butt;stroke-linejoin:miter;stroke-miterlimit:4;stroke-dasharray:none;stroke-dashoffset:0;stroke-opacity:1"
       id="path4220"
       sodipodi:type="arc"
       sodipodi:cx="355.02383"
       sodipodi:cy="426.39148"
       sodipodi:rx="26.471998"
       sodipodi:ry="36.296314"
       sodipodi:start="0.33284409"
       sodipodi:end="1.5750536"
       d="m 380.04297,438.25066 a 26.471998,36.296314 0 0 1 -25.13183,24.4368"
       sodipodi:open="true" />
    <circle
       id="path4222"
       style="fill:#000000;stroke:none"
       cx="540"
       cy="542.36218"
       r="1.5" />
    <circle
       id="path4224"
       style="fill:#000000;stroke:none"
       cx="355"
       cy="507.36221"
       r="1.5" />
    <path
       style="fill:none;fill-rule:evenodd;stroke:#000000;stroke-width:1;stroke-linecap:butt;stroke-linejoin:miter;stroke-opacity:1;marker-start:url(#Arrow1Mstart);marker-end:url(#Arrow1Mend);stroke-miterlimit:4;stroke-dasharray:6,6;stroke-dashoffset:0"
       d="m 360,502.3622 180,35"
       id="path4226"
       inkscape:connector-curvature="0" />
    <path
       style="fill:none;fill-rule:evenodd;stroke:#000000;stroke-width:0.99999994;stroke-linecap:butt;stroke-linejoin:miter;stroke-miterlimit:4;stroke-dasharray:5.99999996, 5.99999996;stroke-dashoffset:0;stroke-opacity:1;marker-start:url(#marker4790);marker-end:url(#marker4860)"
       d="m 269.72135,420.38269 83.44262,1.64715"
       id="path4782"
       inkscape:connector-curvature="0" />
    <g
       transform="matrix(0.42901333,0,0,0.3858915,116.63621,441.27918)"
       id="g5258">
      <g
         style="font-style:normal;font-variant:normal;font-weight:normal;font-stretch:normal;letter-spacing:normal;word-spacing:normal;text-anchor:start;fill:none;fill-opacity:1;fill-rule:evenodd;stroke:#000000;stroke-width:2.45771766;stroke-linecap:butt;stroke-linejoin:miter;stroke-miterlimit:10.43299961;stroke-dasharray:none;stroke-dashoffset:0;stroke-opacity:1"
         id="content"
         transform="matrix(1.0629921,0,0,-1.0629921,-186.02362,789.27165)"
         xml:space="preserve"
         stroke-miterlimit="10.433"
         font-style="normal"
         font-variant="normal"
         font-weight="normal"
         font-stretch="normal"
         font-size-adjust="none"
         letter-spacing="normal"
         word-spacing="normal"><path
           style="fill:#000000;stroke-width:0"
           inkscape:connector-curvature="0"
           d="m 458.05,410.38 0,-0.18 -0.01,-0.18 0,-0.17 -0.01,-0.17 -0.02,-0.17 -0.01,-0.17 -0.02,-0.17 -0.02,-0.18 -0.03,-0.19 -0.01,-0.09 -0.02,-0.1 -0.01,-0.1 -0.02,-0.11 -0.02,-0.11 -0.01,-0.11 -0.02,-0.11 -0.02,-0.12 -0.03,-0.12 -0.02,-0.13 -0.02,-0.13 -0.03,-0.14 -0.02,-0.14 -0.03,-0.15 c -0.1,-0.59 -0.15,-0.74 -0.2,-1.09 0.75,-0.4 1.54,-0.6 2.14,-0.6 1.64,0 3.59,1.45 5.13,3.79 l 3.79,5.83 0.54,-3.44 c 0.65,-4.24 1.8,-6.18 3.59,-6.18 1.1,0 2.69,0.85 4.29,2.29 l 2.44,2.19 -0.45,0.95 c -1.8,-1.49 -3.04,-2.24 -3.84,-2.24 -0.74,0 -1.39,0.5 -1.89,1.49 -0.45,0.95 -1,2.8 -1.24,4.24 l -0.9,5.03 1.74,2.44 c 2.34,3.24 3.69,4.38 5.23,4.38 0.8,0 1.39,-0.4 1.64,-1.14 l 0.7,0.2 0.75,4.23 c -0.6,0.35 -1.05,0.5 -1.5,0.5 -1.99,0 -3.98,-1.8 -7.07,-6.38 l -1.84,-2.74 -0.3,2.4 c -0.6,4.92 -1.94,6.72 -4.88,6.72 -1.3,0 -2.39,-0.4 -2.84,-1.05 l -2.89,-4.13 0.85,-0.5 c 1.49,1.69 2.49,2.39 3.43,2.39 1.65,0 2.74,-2.04 3.59,-6.92 l 0.55,-3.09 -2,-3.09 c -2.14,-3.33 -3.83,-4.93 -5.23,-4.93 -0.74,0 -1.29,0.2 -1.39,0.45 l -0.55,1.39 z"
           id="path5261" /><path
           style="fill:#000000;stroke-width:0"
           inkscape:connector-curvature="0"
           d="m 485.54,418.01 0.37,0 4.89,2.2 c 0.04,0.04 0.08,0.04 0.11,0.04 0.23,0 0.3,-0.35 0.3,-1.25 l 0,-18.37 c 0,-1.97 -0.41,-2.38 -2.46,-2.49 l -2.12,-0.12 0,-1.13 12.19,0 0,1.13 -1.96,0.12 c -2.09,0.11 -2.47,0.52 -2.47,2.49 l 0,22.46 -0.52,0.18 c -2.46,-1.29 -5.16,-2.42 -8.6,-3.63 z"
           id="path5263" /></g>    </g>
    <g
       transform="matrix(0.38597045,0,0,0.38597041,242.94637,174.48909)"
       id="g5351">
      <g
         style="font-style:normal;font-variant:normal;font-weight:normal;font-stretch:normal;letter-spacing:normal;word-spacing:normal;text-anchor:start;fill:none;fill-opacity:1;fill-rule:evenodd;stroke:#000000;stroke-width:2.59087205;stroke-linecap:butt;stroke-linejoin:miter;stroke-miterlimit:10.43299961;stroke-dasharray:none;stroke-dashoffset:0;stroke-opacity:1"
         word-spacing="normal"
         letter-spacing="normal"
         font-size-adjust="none"
         font-stretch="normal"
         font-weight="normal"
         font-variant="normal"
         font-style="normal"
         stroke-miterlimit="10.433"
         xml:space="preserve"
         transform="matrix(1.0629921,0,0,-1.0629921,-186.02362,789.27165)"
         id="g5353"><path
           style="fill:#000000;stroke-width:0"
           inkscape:connector-curvature="0"
           id="path5355"
           d="m 458.05,410.38 0,-0.18 -0.01,-0.18 0,-0.17 -0.01,-0.17 -0.02,-0.17 -0.01,-0.17 -0.02,-0.17 -0.02,-0.18 -0.03,-0.19 -0.01,-0.09 -0.02,-0.1 -0.01,-0.1 -0.02,-0.11 -0.02,-0.11 -0.01,-0.11 -0.02,-0.11 -0.02,-0.12 -0.03,-0.12 -0.02,-0.13 -0.02,-0.13 -0.03,-0.14 -0.02,-0.14 -0.03,-0.15 c -0.1,-0.59 -0.15,-0.74 -0.2,-1.09 0.75,-0.4 1.54,-0.6 2.14,-0.6 1.64,0 3.59,1.45 5.13,3.79 l 3.79,5.83 0.54,-3.44 c 0.65,-4.24 1.8,-6.18 3.59,-6.18 1.1,0 2.69,0.85 4.29,2.29 l 2.44,2.19 -0.45,0.95 c -1.8,-1.49 -3.04,-2.24 -3.84,-2.24 -0.74,0 -1.39,0.5 -1.89,1.49 -0.45,0.95 -1,2.8 -1.24,4.24 l -0.9,5.03 1.74,2.44 c 2.34,3.24 3.69,4.38 5.23,4.38 0.8,0 1.39,-0.4 1.64,-1.14 l 0.7,0.2 0.75,4.23 c -0.6,0.35 -1.05,0.5 -1.5,0.5 -1.99,0 -3.98,-1.8 -7.07,-6.38 l -1.84,-2.74 -0.3,2.4 c -0.6,4.92 -1.94,6.72 -4.88,6.72 -1.3,0 -2.39,-0.4 -2.84,-1.05 l -2.89,-4.13 0.85,-0.5 c 1.49,1.69 2.49,2.39 3.43,2.39 1.65,0 2.74,-2.04 3.59,-6.92 l 0.55,-3.09 -2,-3.09 c -2.14,-3.33 -3.83,-4.93 -5.23,-4.93 -0.74,0 -1.29,0.2 -1.39,0.45 l -0.55,1.39 z" /><path
           style="fill:#000000;stroke-width:0"
           inkscape:connector-curvature="0"
           id="path5357"
           d="m 492.96,423.09 -0.54,-0.02 -0.53,-0.04 -0.51,-0.07 -0.49,-0.09 -0.47,-0.12 -0.46,-0.15 -0.44,-0.18 -0.42,-0.21 -0.41,-0.23 -0.39,-0.25 -0.37,-0.29 -0.35,-0.31 -0.34,-0.34 -0.32,-0.37 -0.31,-0.39 -0.28,-0.42 -0.27,-0.45 -0.25,-0.47 -0.24,-0.5 -0.22,-0.53 -0.2,-0.55 -0.18,-0.58 -0.16,-0.61 -0.15,-0.63 -0.13,-0.66 -0.12,-0.69 -0.09,-0.71 -0.08,-0.74 -0.06,-0.77 -0.05,-0.79 -0.02,-0.82 -0.01,-0.84 c 0,-4.43 0.79,-8.26 2.12,-10.11 1.32,-1.86 3.44,-2.92 5.79,-2.92 l 0.49,1.33 c -3.67,0 -5.22,3.82 -5.22,13.06 0,7.99 1.4,11.13 4.99,11.13 l 0,0 c 3.68,0 5.16,-3.71 5.16,-12.8 0,-8.06 -1.45,-11.39 -4.93,-11.39 l -0.49,-1.33 c 5.72,0 8.6,4.92 8.6,14.62 0,8.29 -2.47,12.23 -7.65,12.23 z" /></g>    </g>
    <g
       transform="matrix(0.40012237,0,0,0.4001223,445.08616,357.25916)"
       id="g5453">
      <g
         style="font-style:normal;font-variant:normal;font-weight:normal;font-stretch:normal;letter-spacing:normal;word-spacing:normal;text-anchor:start;fill:none;fill-opacity:1;fill-rule:evenodd;stroke:#000000;stroke-width:2.49923563;stroke-linecap:butt;stroke-linejoin:miter;stroke-miterlimit:10.43299961;stroke-dasharray:none;stroke-dashoffset:0;stroke-opacity:1"
         id="g5455"
         transform="matrix(1.0629921,0,0,-1.0629921,-186.02362,789.27165)"
         xml:space="preserve"
         stroke-miterlimit="10.433"
         font-style="normal"
         font-variant="normal"
         font-weight="normal"
         font-stretch="normal"
         font-size-adjust="none"
         letter-spacing="normal"
         word-spacing="normal"><path
           style="fill:#000000;stroke-width:0"
           inkscape:connector-curvature="0"
           d="m 458.05,410.38 0,-0.18 -0.01,-0.18 0,-0.17 -0.01,-0.17 -0.02,-0.17 -0.01,-0.17 -0.02,-0.17 -0.02,-0.18 -0.03,-0.19 -0.01,-0.09 -0.02,-0.1 -0.01,-0.1 -0.02,-0.11 -0.02,-0.11 -0.01,-0.11 -0.02,-0.11 -0.02,-0.12 -0.03,-0.12 -0.02,-0.13 -0.02,-0.13 -0.03,-0.14 -0.02,-0.14 -0.03,-0.15 c -0.1,-0.59 -0.15,-0.74 -0.2,-1.09 0.75,-0.4 1.54,-0.6 2.14,-0.6 1.64,0 3.59,1.45 5.13,3.79 l 3.79,5.83 0.54,-3.44 c 0.65,-4.24 1.8,-6.18 3.59,-6.18 1.1,0 2.69,0.85 4.29,2.29 l 2.44,2.19 -0.45,0.95 c -1.8,-1.49 -3.04,-2.24 -3.84,-2.24 -0.74,0 -1.39,0.5 -1.89,1.49 -0.45,0.95 -1,2.8 -1.24,4.24 l -0.9,5.03 1.74,2.44 c 2.34,3.24 3.69,4.38 5.23,4.38 0.8,0 1.39,-0.4 1.64,-1.14 l 0.7,0.2 0.75,4.23 c -0.6,0.35 -1.05,0.5 -1.5,0.5 -1.99,0 -3.98,-1.8 -7.07,-6.38 l -1.84,-2.74 -0.3,2.4 c -0.6,4.92 -1.94,6.72 -4.88,6.72 -1.3,0 -2.39,-0.4 -2.84,-1.05 l -2.89,-4.13 0.85,-0.5 c 1.49,1.69 2.49,2.39 3.43,2.39 1.65,0 2.74,-2.04 3.59,-6.92 l 0.55,-3.09 -2,-3.09 c -2.14,-3.33 -3.83,-4.93 -5.23,-4.93 -0.74,0 -1.29,0.2 -1.39,0.45 l -0.55,1.39 z"
           id="path5457" /><path
           style="fill:#000000;stroke-width:0"
           inkscape:connector-curvature="0"
           d="m 483.61,397.87 0,-0.98 17.11,0 c -0.08,0.79 -0.08,1.17 -0.08,1.7 0,0.49 0,0.87 0.08,1.7 -4.36,-0.18 -6.1,-0.22 -13.1,-0.38 l 6.89,7.31 c 3.67,3.9 4.81,5.98 4.81,8.82 0,4.35 -2.96,7.05 -7.77,7.05 -2.72,0 -4.57,-0.76 -6.43,-2.66 l -0.64,-5.14 1.09,0 0.5,1.74 c 0.6,2.19 1.97,3.14 4.5,3.14 3.26,0 5.34,-2.05 5.34,-5.26 0,-2.84 -1.59,-5.64 -5.87,-10.19 z"
           id="path5459" /></g>    </g>
    <g
       id="g5797"
       transform="matrix(0.28048583,0,0,0.28048604,224.27737,316.07145)">
      <g
         word-spacing="normal"
         letter-spacing="normal"
         font-size-adjust="none"
         font-stretch="normal"
         font-weight="normal"
         font-variant="normal"
         font-style="normal"
         stroke-miterlimit="10.433"
         xml:space="preserve"
         transform="matrix(1.0629921,0,0,-1.0629921,-186.02362,789.27165)"
         id="g5799"
         style="font-style:normal;font-variant:normal;font-weight:normal;font-stretch:normal;letter-spacing:normal;word-spacing:normal;text-anchor:start;fill:none;fill-opacity:1;fill-rule:evenodd;stroke:#000000;stroke-width:3.5652411;stroke-linecap:butt;stroke-linejoin:miter;stroke-miterlimit:10.43299961;stroke-dasharray:none;stroke-dashoffset:0;stroke-opacity:1"><path
           id="path5801"
           d="m 459.34,433.64 0.5,0 6.42,2.9 c 0.05,0.05 0.1,0.05 0.15,0.05 0.3,0 0.4,-0.45 0.4,-1.65 l 0,-24.16 c 0,-2.59 -0.55,-3.14 -3.24,-3.28 l -2.79,-0.16 0,-1.49 16.04,0 0,1.49 -2.59,0.16 c -2.74,0.14 -3.24,0.69 -3.24,3.28 l 0,29.54 -0.69,0.25 c -3.24,-1.69 -6.78,-3.19 -11.31,-4.78 z"
           inkscape:connector-curvature="0"
           style="fill:#000000;stroke-width:0" /></g>    </g>
    <g
       id="g5923"
       transform="matrix(0.42857823,0,0,0.42857832,240.18487,396.04399)">
      <g
         id="g5925"
         transform="matrix(1.0629921,0,0,-1.0629921,-186.02362,789.27165)"
         xml:space="preserve"
         stroke-miterlimit="10.433"
         font-style="normal"
         font-variant="normal"
         font-weight="normal"
         font-stretch="normal"
         font-size-adjust="none"
         letter-spacing="normal"
         word-spacing="normal"
         style="font-style:normal;font-variant:normal;font-weight:normal;font-stretch:normal;letter-spacing:normal;word-spacing:normal;text-anchor:start;fill:none;fill-opacity:1;fill-rule:evenodd;stroke:#000000;stroke-width:2.33329606;stroke-linecap:butt;stroke-linejoin:miter;stroke-miterlimit:10.43299961;stroke-dasharray:none;stroke-dashoffset:0;stroke-opacity:1"><path
           d="m 475.53,438.18 -0.19,-0.11 -0.2,-0.11 -0.21,-0.12 -0.21,-0.11 -0.22,-0.11 -0.23,-0.11 -0.24,-0.11 -0.24,-0.12 -0.25,-0.11 -0.25,-0.11 -0.26,-0.11 -0.27,-0.12 -0.27,-0.11 -0.28,-0.11 -0.28,-0.11 -0.29,-0.11 -1,-6.93 -0.25,-1.49 -3.38,-20.58 c -4.53,0.5 -6.38,2.54 -6.38,6.13 l 0,0 c 0,5.58 3.49,11.66 7.33,13.75 0.59,0.3 1.44,0.55 2.43,0.7 l 0.25,1.49 c -1.54,-0.4 -3.03,-0.94 -4.58,-1.69 -5.93,-2.89 -9.21,-7.97 -9.21,-14.2 0,-5.33 3.13,-8.12 8.96,-8.12 0.3,0 0.6,0 0.9,0.05 -0.55,-2.94 -1.39,-7.07 -2.29,-11.11 l -0.4,-1.84 0.35,-0.3 c 1.04,0.35 2.04,0.6 3.63,0.85 l 2.05,12.85 0.25,1.5 c 0.09,0.64 0.25,1.24 0.29,1.49 l 0.9,5.28 c 0.4,2.29 0.75,4.23 1.94,11.21 l 0.45,2.64 c 4.24,-0.35 6.63,-2.54 6.63,-6.33 l 0,0 c 0,-4.83 -2.79,-10.11 -6.28,-12.75 -1.05,-0.75 -2.39,-1.29 -3.93,-1.54 l -0.25,-1.5 c 2.39,0.55 4.73,1.5 6.67,2.79 4.44,2.94 7.57,8.62 7.57,13.75 0,4.68 -3.48,7.52 -9.16,7.52 -0.3,0 -0.6,0 -0.9,-0.05 0.6,3.24 1.1,5.28 1.84,7.47 z"
           id="path5927"
           inkscape:connector-curvature="0"
           style="fill:#00ff00;stroke:#00ff00;stroke-width:0" /></g>    </g>
    <g
       id="g6055"
       transform="matrix(0.44640132,0,0,0.44640135,237.14492,309.70253)">
      <g
         word-spacing="normal"
         letter-spacing="normal"
         font-size-adjust="none"
         font-stretch="normal"
         font-weight="normal"
         font-variant="normal"
         font-style="normal"
         stroke-miterlimit="10.433"
         xml:space="preserve"
         transform="matrix(1.0629921,0,0,-1.0629921,-186.02362,789.27165)"
         id="g6057"
         style="font-style:normal;font-variant:normal;font-weight:normal;font-stretch:normal;letter-spacing:normal;word-spacing:normal;text-anchor:start;fill:none;fill-opacity:1;fill-rule:evenodd;stroke:#000000;stroke-width:2.24013662;stroke-linecap:butt;stroke-linejoin:miter;stroke-miterlimit:10.43299961;stroke-dasharray:none;stroke-dashoffset:0;stroke-opacity:1"><path
           id="path6059"
           d="m 459.34,423.93 0.7,-0.45 c 1.69,2.34 3.03,3.29 4.33,3.29 2.14,0 3.49,-3.54 4.63,-10.91 -5.73,-6.42 -10.81,-13.3 -13.75,-19.42 0.6,-0.65 1.25,-1.15 1.65,-1.5 l 1.14,-0.2 c 2.49,6.03 5.53,12.46 11.26,19.18 l 1.84,-10.36 c 1,-6.03 2.4,-8.82 4.44,-8.82 1.19,0 2.88,0.15 4.78,2.19 l 2.79,3.04 -0.4,0.95 c -2.04,-2.04 -3.34,-2.94 -4.43,-2.94 -1.05,0 -1.94,0.7 -2.7,2.09 -0.54,1.4 -1.29,5.23 -1.74,7.43 l -1.69,9.61 c 3.49,3.59 7.72,7.22 13.1,10.96 l -0.15,0.59 c -0.5,0.45 -1.05,1 -1.5,1.35 -3.78,-3.09 -7.86,-6.92 -11.75,-11.01 -0.85,7.12 -2.49,11.01 -6.28,11.01 -1.39,0 -2.59,-0.55 -3.18,-1.44 z"
           inkscape:connector-curvature="0"
           style="fill:#0000ff;stroke:#0000ff;stroke-width:0" /></g>    </g>
    <path
       style="fill:none;fill-rule:evenodd;stroke:#ff0000;stroke-width:1;stroke-linecap:butt;stroke-linejoin:miter;stroke-miterlimit:4;stroke-dasharray:3.00000003, 3.00000003;stroke-dashoffset:0;stroke-opacity:1"
       d="m 416.60714,463.25505 0,56.21564"
       id="path6138"
       inkscape:connector-curvature="0" />
    <path
       style="fill:none;fill-rule:evenodd;stroke:#000000;stroke-width:1;stroke-linecap:butt;stroke-linejoin:miter;stroke-miterlimit:4;stroke-dasharray:7.99999998, 7.99999998;stroke-dashoffset:0;stroke-opacity:1;marker-start:url(#marker6148);marker-end:url(#marker6192)"
       d="M 414.23897,521.32893 352.10031,509.91327"
       id="path6140"
       inkscape:connector-curvature="0" />
    <circle
       id="path6232"
       style="fill:#000000;stroke:none"
       cx="416.96738"
       cy="518.83936"
       r="1.5" />
    <g
       id="g6299"
       transform="matrix(0.20600088,0,0,0.20600079,301.5687,448.06795)">
      <g
         id="g6301"
         transform="matrix(1.0629921,0,0,-1.0629921,-186.02362,789.27165)"
         xml:space="preserve"
         stroke-miterlimit="10.433"
         font-style="normal"
         font-variant="normal"
         font-weight="normal"
         font-stretch="normal"
         font-size-adjust="none"
         letter-spacing="normal"
         word-spacing="normal"
         style="font-style:normal;font-variant:normal;font-weight:normal;font-stretch:normal;letter-spacing:normal;word-spacing:normal;text-anchor:start;fill:none;fill-opacity:1;fill-rule:evenodd;stroke:#000000;stroke-width:4.85434961;stroke-linecap:butt;stroke-linejoin:miter;stroke-miterlimit:10.43299961;stroke-dasharray:none;stroke-dashoffset:0;stroke-opacity:1"><path
           d="m 458.04,413.12 0,-0.31 0,-0.31 0,-0.29 0,-0.29 -0.01,-0.27 0,-0.27 -0.01,-0.26 -0.01,-0.25 0,-0.24 -0.01,-0.23 -0.01,-0.23 -0.01,-0.22 -0.02,-0.22 -0.01,-0.21 -0.02,-0.2 -0.01,-0.2 -0.04,-0.39 -0.04,-0.37 -0.04,-0.36 -0.05,-0.36 -0.06,-0.36 -0.06,-0.35 -0.06,-0.36 -0.07,-0.37 c 2.59,-0.85 4.53,-1.2 6.82,-1.2 6.52,0 11.16,3.49 11.16,8.37 0,1.55 -0.45,2.69 -1.4,3.69 -1.29,1.24 -2.94,1.84 -7.32,2.69 -4.08,0.8 -5.43,1.79 -5.43,4.08 0,2.49 1.74,3.89 4.78,3.89 3.34,0 5.88,-1.74 5.88,-4.09 l 0,-1.14 1.4,0 c 0.04,2.89 0.09,4.08 0.24,5.63 -2.64,0.89 -4.43,1.24 -6.47,1.24 -5.78,0 -9.32,-2.74 -9.32,-7.22 0,-2.39 1.1,-4.09 3.39,-5.13 1.34,-0.6 3.98,-1.4 7.37,-2.14 2.24,-0.5 3.19,-1.55 3.19,-3.44 0,-2.69 -2.49,-4.58 -6.03,-4.58 -3.63,0 -6.22,1.74 -6.22,4.23 l 0,2.04 z"
           id="path6303"
           inkscape:connector-curvature="0"
           style="fill:#000000;stroke-width:0" /><path
           d="m 486.36,429.16 -0.44,0.2 c -2.54,-1.04 -5.13,-1.74 -7.78,-2.04 l 0,-1.39 1.85,0 c 1.99,0 2.19,-0.35 2.19,-3.64 l 0,-11.21 c 0,-3.14 -0.15,-3.49 -1.84,-3.58 l -2.29,-0.16 0,-1.49 12.45,0 0,1.49 -2.29,0.16 c -1.69,0.09 -1.85,0.44 -1.85,3.58 z"
           id="path6305"
           inkscape:connector-curvature="0"
           style="fill:#000000;stroke-width:0" /><path
           d="m 484.07,440.22 -0.14,0 -0.13,-0.01 -0.14,-0.02 -0.14,-0.03 -0.13,-0.03 -0.13,-0.04 -0.13,-0.04 -0.12,-0.05 -0.13,-0.06 -0.12,-0.06 -0.11,-0.07 -0.12,-0.08 -0.11,-0.08 -0.1,-0.08 -0.1,-0.09 -0.1,-0.09 -0.09,-0.1 -0.09,-0.1 -0.09,-0.11 -0.08,-0.11 -0.07,-0.11 -0.07,-0.12 -0.06,-0.12 -0.06,-0.12 -0.05,-0.13 -0.05,-0.12 -0.03,-0.14 -0.04,-0.13 -0.02,-0.13 -0.02,-0.14 -0.01,-0.14 0,-0.14 c 0,-1.44 1.29,-2.74 2.73,-2.74 1.45,0 2.79,1.3 2.79,2.74 0,1.4 -1.34,2.79 -2.74,2.79 z"
           id="path6307"
           inkscape:connector-curvature="0"
           style="fill:#000000;stroke-width:0" /><path
           d="m 511.42,405.85 8.07,0 0,1.49 -2.04,0.16 c -1.69,0.09 -1.84,0.39 -1.84,3.58 l 0,9.62 c 0,5.82 -2.74,8.66 -8.32,8.66 -1.84,0 -2.89,-0.35 -3.93,-1.24 l -3.79,-3.29 0,4.33 -0.45,0.2 c -2.54,-1.04 -5.13,-1.74 -7.77,-2.04 l 0,-1.39 1.84,0 c 1.99,0 2.19,-0.35 2.19,-3.64 l 0,-11.21 c 0,-3.14 -0.15,-3.49 -1.84,-3.58 l -2.24,-0.16 0,-1.49 12.35,0 0,1.49 -2.24,0.16 c -1.69,0.09 -1.84,0.44 -1.84,3.58 l 0,10.56 c 0,2.24 3.29,4.68 6.32,4.68 3.34,0 5.53,-2.49 5.53,-6.32 z"
           id="path6309"
           inkscape:connector-curvature="0"
           style="fill:#000000;stroke-width:0" /><path
           d="m 532.34,423.93 0.69,-0.45 c 1.7,2.34 3.04,3.29 4.34,3.29 2.14,0 3.48,-3.54 4.63,-10.91 -5.73,-6.42 -10.81,-13.3 -13.75,-19.42 0.6,-0.65 1.25,-1.15 1.65,-1.5 l 1.14,-0.2 c 2.49,6.03 5.53,12.46 11.26,19.18 l 1.85,-10.36 c 0.99,-6.03 2.38,-8.82 4.43,-8.82 1.19,0 2.89,0.15 4.78,2.19 l 2.79,3.04 -0.4,0.95 c -2.04,-2.04 -3.34,-2.94 -4.43,-2.94 -1.05,0 -1.94,0.7 -2.7,2.09 -0.54,1.4 -1.29,5.23 -1.74,7.43 l -1.69,9.61 c 3.49,3.59 7.72,7.22 13.1,10.96 l -0.15,0.59 c -0.5,0.45 -1.05,1 -1.49,1.35 -3.79,-3.09 -7.87,-6.92 -11.76,-11.01 -0.85,7.12 -2.49,11.01 -6.28,11.01 -1.39,0 -2.59,-0.55 -3.18,-1.44 z"
           id="path6311"
           inkscape:connector-curvature="0"
           style="fill:#000000;stroke-width:0" /></g>    </g>
    <g
       id="g6455"
       transform="matrix(0.18913263,0,0,0.1891325,412.86049,451.7782)">
      <g
         word-spacing="normal"
         letter-spacing="normal"
         font-size-adjust="none"
         font-stretch="normal"
         font-weight="normal"
         font-variant="normal"
         font-style="normal"
         stroke-miterlimit="10.433"
         xml:space="preserve"
         transform="matrix(1.0629921,0,0,-1.0629921,-186.02362,789.27165)"
         id="g6457"
         style="font-style:normal;font-variant:normal;font-weight:normal;font-stretch:normal;letter-spacing:normal;word-spacing:normal;text-anchor:start;fill:none;fill-opacity:1;fill-rule:evenodd;stroke:#000000;stroke-width:5.28729677;stroke-linecap:butt;stroke-linejoin:miter;stroke-miterlimit:10.43299961;stroke-dasharray:none;stroke-dashoffset:0;stroke-opacity:1"><path
           id="path6459"
           d="m 460.88,425.03 0,-14.35 c 0,-3.68 1.65,-5.28 5.48,-5.28 1.15,0 2.34,0.25 2.64,0.6 l 2.39,2.64 -0.64,0.85 c -1.25,-0.7 -2,-0.95 -2.95,-0.95 -1.94,0 -2.73,1 -2.73,3.44 l 0,13.05 6.37,0 0.45,2.69 -6.82,-0.3 0,1.89 c 0,2.1 0.14,3.89 0.54,7.08 l -0.59,0.54 c -1.2,-0.74 -2.69,-1.39 -4.24,-1.89 0.15,-1.49 0.2,-2.44 0.2,-3.93 l 0,-3.49 -3.88,-1.74 0,-1.05 z"
           inkscape:connector-curvature="0"
           style="fill:#000000;stroke-width:0" /><path
           id="path6461"
           d="m 488.14,410.09 -0.25,-4.24 7.57,0 0,1.49 -1.94,0.11 c -1.2,0.05 -1.4,0.44 -1.4,2.88 l 0,9.12 c 0,7.27 -2.09,9.91 -7.87,9.91 -2.14,0 -4.13,-0.55 -6.02,-1.69 l -2.64,-1.6 0,-3.23 1.29,-0.35 0.65,1.54 c 1.04,2.35 1.54,2.69 3.83,2.69 4.69,0 6.63,-1.84 6.78,-6.37 l 0,-1.6 0,-6.57 c -1.44,-2.05 -4.58,-3.94 -6.53,-3.94 -1.99,0 -3.73,1.85 -3.73,3.99 0,1.84 1,3.58 2.49,4.53 1.24,0.75 3.99,1.44 7.77,1.99 l 0,1.6 -4.93,-0.9 c -6.78,-1.25 -9.62,-3.59 -9.62,-7.92 0,-3.89 2.34,-6.13 6.28,-6.13 0.9,0 1.74,0.15 2.09,0.4 z"
           inkscape:connector-curvature="0"
           style="fill:#000000;stroke-width:0" /><path
           id="path6463"
           d="m 517.42,405.85 8.07,0 0,1.49 -2.04,0.16 c -1.69,0.09 -1.84,0.39 -1.84,3.58 l 0,9.62 c 0,5.82 -2.74,8.66 -8.32,8.66 -1.84,0 -2.89,-0.35 -3.93,-1.24 l -3.79,-3.29 0,4.33 -0.45,0.2 c -2.54,-1.04 -5.13,-1.74 -7.77,-2.04 l 0,-1.39 1.84,0 c 1.99,0 2.19,-0.35 2.19,-3.64 l 0,-11.21 c 0,-3.14 -0.15,-3.49 -1.84,-3.58 l -2.24,-0.16 0,-1.49 12.35,0 0,1.49 -2.24,0.16 c -1.69,0.09 -1.84,0.44 -1.84,3.58 l 0,10.56 c 0,2.24 3.29,4.68 6.32,4.68 3.34,0 5.53,-2.49 5.53,-6.32 z"
           inkscape:connector-curvature="0"
           style="fill:#000000;stroke-width:0" /><path
           id="path6465"
           d="m 538.34,423.93 0.69,-0.45 c 1.7,2.34 3.04,3.29 4.34,3.29 2.14,0 3.48,-3.54 4.63,-10.91 -5.73,-6.42 -10.81,-13.3 -13.75,-19.42 0.6,-0.65 1.25,-1.15 1.65,-1.5 l 1.14,-0.2 c 2.49,6.03 5.53,12.46 11.26,19.18 l 1.85,-10.36 c 0.99,-6.03 2.38,-8.82 4.43,-8.82 1.19,0 2.89,0.15 4.78,2.19 l 2.79,3.04 -0.4,0.95 c -2.04,-2.04 -3.34,-2.94 -4.43,-2.94 -1.05,0 -1.94,0.7 -2.7,2.09 -0.54,1.4 -1.29,5.23 -1.74,7.43 l -1.69,9.61 c 3.49,3.59 7.72,7.22 13.1,10.96 l -0.15,0.59 c -0.5,0.45 -1.05,1 -1.49,1.35 -3.79,-3.09 -7.87,-6.92 -11.76,-11.01 -0.85,7.12 -2.49,11.01 -6.28,11.01 -1.39,0 -2.59,-0.55 -3.18,-1.44 z"
           inkscape:connector-curvature="0"
           style="fill:#000000;stroke-width:0" /></g>    </g>
    <circle
       id="path6564"
       style="fill:#000000;stroke:none"
       cx="416.78571"
       cy="462.71933"
       r="1.5" />
  </g>
</svg>
